<svg xmlns="http://www.w3.org/2000/svg" viewBox="0 0 926.02 160.2"><defs><style>.cls-1{fill:#fff}</style></defs><g id="Layer_2" data-name="Layer 2"><g id="Layer_2-2" data-name="Layer 2"><path class="cls-1" d="M165.73.51h19.72l18 54 17.57-51h24.86l17.57 51 17.78-54h19.5l-24.43 72h-23.57l-19.5-55.5-18.21 55.5h-24l-25.29-72zM391.8 12.25V.51h-81.48v72H391.8V60.78h-63.16V39.41h57.54V27.67h-57.54V12.25h63.16zM217.59 89.19v-7.46H165.73v45.82h51.86v-7.47h-40.2v-13.6h36.62v-7.47h-36.62v-9.82h40.2zM336.25 89.19v-7.46H284.39v45.82h51.86v-7.47h-40.2v-13.6h36.62v-7.47h-36.62v-9.82h40.2zM926.02 12.25V.51H844.54v72H926.02V60.78h-63.16V39.41h57.53V27.67h-57.53V12.25h63.16zM479.47 27.35h-50.3a3.94 3.94 0 01-3.94-3.93v-6.11a3.94 3.94 0 013.94-3.94h59.71V.51H422a13.29 13.29 0 00-1.4.08c-.36 0-.71.09-1.06.15h-.26a15.51 15.51 0 00-2.47.68l-.36.13-.59.25c-5 2.09-9.13 6.46-9.13 11.53h.27a15.68 15.68 0 00-.22 2.49v7.8a15.91 15.91 0 0015.91 15.91h48.49a3.93 3.93 0 013.94 3.93v12.26a3.94 3.94 0 01-3.94 3.94h-64.4v12.85h74.41a12.77 12.77 0 003.93-.61 13.84 13.84 0 009.73-13.21v-16a15.35 15.35 0 00-15.38-15.34zM679.19 27.35h-50.31a3.93 3.93 0 01-3.88-3.93v-6.11a3.93 3.93 0 013.93-3.94h59.71V.51h-66.91a13.29 13.29 0 00-1.4.08c-.36 0-.71.09-1.06.15h-.26a15.81 15.81 0 00-2.47.68l-.36.13-.59.25c-5 2.09-9.13 6.46-9.13 11.53h.22a15.68 15.68 0 00-.22 2.49v7.8a15.92 15.92 0 0015.92 15.91h48.49a3.93 3.93 0 013.93 3.93v12.26a3.94 3.94 0 01-3.93 3.94h-64.41v12.85h74.42a12.76 12.76 0 003.92-.61 13.83 13.83 0 009.74-13.21v-16a15.35 15.35 0 00-15.35-15.34zM594.52.51h-92.79v12h36.86v60h19.07v-60h36.86v-12zM460.8 81.73h-58.98v7.63h23.43v38.14h12.12V89.36h23.43v-7.63zM708.3.51h19.29v72H708.3zM742.59.51v72h53.57a33.43 33.43 0 0033.43-33.43v-5.14A33.43 33.43 0 00796.16.51zM761 60.73V12.3h27.21a22.29 22.29 0 0122.29 22.28v3.86a22.29 22.29 0 01-22.29 22.29zM530.55 81.73h12.32v46h-12.32zM237.73 119.87V81.73h-11.35v45.82h51.1v-7.68h-39.75zM687.84 119.87V81.73h-11.36v45.82h51.11v-7.68h-39.75zM771.57 119.87V81.73h-11.36v45.82h51.11v-7.68h-39.75zM830.34 119.87V81.73h-11.36v45.82h51.11v-7.68h-39.75zM395.13 89.55v-7.82H353a8.66 8.66 0 00-8.66 8.66v28.5a8.66 8.66 0 008.66 8.66h42.13v-7.82H359.8a3.35 3.35 0 01-3.35-3.36V92.91a3.35 3.35 0 013.35-3.36zM603.41 89.55v-7.82h-42.12a8.66 8.66 0 00-8.66 8.66v28.5a8.66 8.66 0 008.66 8.66h42.12v-7.82h-35.32a3.36 3.36 0 01-3.36-3.36V92.91a3.36 3.36 0 013.36-3.36zM926 89.55v-7.82h-42.11a8.66 8.66 0 00-8.66 8.66v28.5a8.66 8.66 0 008.66 8.66H926v-7.82h-35.3a3.35 3.35 0 01-3.36-3.36V92.91a3.35 3.35 0 013.36-3.36zM523.8 127.5l-18.32-18.24h6.43a9.54 9.54 0 009.54-9.53v-8.47a9.54 9.54 0 00-9.54-9.53H466.7v46h12.21v-18.47h11.78L509 127.5zm-44.89-37.74h27.64a3 3 0 013 3v5.47a3 3 0 01-3 3h-27.64zM656.69 127.55h12.77l-23-46.2h-14.77l-23 46.2h12.77l6.44-12.93h22.35zm-25-20.48l7.42-14.89 7.41 14.89zM171 144.61h-3.67a6 6 0 016.18-5.44 5.76 5.76 0 014.13 1.57 4.89 4.89 0 011.67 3.71 4.32 4.32 0 01-.73 2.44 5.19 5.19 0 01-2.11 1.78 5.44 5.44 0 012.85 1.9 5.14 5.14 0 011 3.19 6.06 6.06 0 01-2 4.57 7.12 7.12 0 01-5.06 1.87 6.58 6.58 0 01-4.75-1.76 6.94 6.94 0 01-2-4.8h3.77a3.86 3.86 0 001.08 2.3 3.3 3.3 0 004.33-.1 2.8 2.8 0 00.88-2.09 2.85 2.85 0 00-1.18-2.3 5.5 5.5 0 00-3.42-1v-3.27a5.92 5.92 0 002-.43 2.52 2.52 0 001.05-.87 2.19 2.19 0 00.37-1.19 1.78 1.78 0 00-.57-1.35 2.09 2.09 0 00-1.5-.54 2.54 2.54 0 00-2.39 1.78zM206.71 139.17l3.24 1.62-3.5 6.8a5.82 5.82 0 014.33 1.83 6.21 6.21 0 011.78 4.53A6.28 6.28 0 01200 154a6.31 6.31 0 01.28-1.86 18.18 18.18 0 011.28-2.89zm-.48 12a2.35 2.35 0 00-1.78.77 2.91 2.91 0 000 3.87 2.37 2.37 0 001.77.79 2.5 2.5 0 001.82-.77 2.9 2.9 0 000-3.89 2.49 2.49 0 00-1.81-.74zM239.26 139.17a6.56 6.56 0 013.78 1.08 6.85 6.85 0 012.45 3.28 17.67 17.67 0 01.86 6.16 17.34 17.34 0 01-.88 6.21 7 7 0 01-2.36 3.26 6.4 6.4 0 01-3.74 1 6.59 6.59 0 01-3.8-1 6.86 6.86 0 01-2.41-3.19 16.7 16.7 0 01-.87-6.08c0-3.67.57-6.34 1.7-8a6.07 6.07 0 015.27-2.72zm.09 3.62a2.61 2.61 0 00-1.71.62 4 4 0 00-1.14 2.13 18.25 18.25 0 00-.4 4.42q0 3.79.91 5.25a2.67 2.67 0 002.34 1.45 2.48 2.48 0 002.2-1.38q1-1.65 1-5.55t-.89-5.44a2.63 2.63 0 00-2.31-1.5zM266.8 150.59h6.92v3.46h-6.92zM295.07 139.67h13.13v2l-9 18.53-3.2-1.56 7.52-15.39h-8.4zM334.37 139.17l3.25 1.62-3.51 6.8a5.82 5.82 0 014.33 1.83 6.21 6.21 0 011.78 4.53 6.28 6.28 0 01-12.56 0 6.31 6.31 0 01.28-1.86 18.48 18.48 0 011.29-2.89zm-.48 12a2.36 2.36 0 00-1.78.77 2.91 2.91 0 000 3.87 2.38 2.38 0 001.77.79 2.5 2.5 0 001.82-.77 2.68 2.68 0 00.76-2 2.63 2.63 0 00-.74-1.93 2.47 2.47 0 00-1.83-.7zM364 146.12h-3.72a7.33 7.33 0 012-5.09 7.17 7.17 0 018.05-1.09 5.76 5.76 0 012.24 2.22 5.88 5.88 0 01.83 2.94 8.8 8.8 0 01-1 3.84 21.27 21.27 0 01-3.71 4.86l-2.25 2.37h7.14v3.52h-13.8v-1.82l6.19-6.31a18.36 18.36 0 003-3.66 5.41 5.41 0 00.74-2.5 2.57 2.57 0 00-.77-1.91 2.71 2.71 0 00-2-.75 2.6 2.6 0 00-2 .91 3.71 3.71 0 00-.94 2.47zM394.47 150.59h6.91v3.46h-6.91zM433 148.84a6.07 6.07 0 012.85 5.2 6.24 6.24 0 01-.86 3.2 5.65 5.65 0 01-2.33 2.22 8.19 8.19 0 01-3.71.74 8.61 8.61 0 01-3.85-.72 5.47 5.47 0 01-2.29-2.16 6.35 6.35 0 01-.86-3.28 6.07 6.07 0 01.69-2.88 7 7 0 012.06-2.32 6.43 6.43 0 01-1.35-1.94 5.19 5.19 0 01-.46-2.17 5.48 5.48 0 01.76-2.85 5.28 5.28 0 012.11-2 6.77 6.77 0 013.15-.71 6.41 6.41 0 013.09.72 5.24 5.24 0 012.1 2.05 5.59 5.59 0 01.77 2.85 4.88 4.88 0 01-.4 2 7.83 7.83 0 01-1.47 2.05zm-4.06 2a3.36 3.36 0 00-2.32.84 2.61 2.61 0 00-.94 2 2.7 2.7 0 00.89 2 3.23 3.23 0 002.32.84 3.35 3.35 0 002.33-.78 2.62 2.62 0 00.86-2 2.73 2.73 0 00-.9-2.08 3.16 3.16 0 00-2.28-.79zm-.15-8a2.08 2.08 0 00-1.55.62 2.17 2.17 0 00-.6 1.58 2.24 2.24 0 00.63 1.62 2.16 2.16 0 001.58.65 2.09 2.09 0 001.59-.64A2.28 2.28 0 00431 145a2.06 2.06 0 00-.63-1.57 2.26 2.26 0 00-1.62-.59zM458.6 139.67h9.4v3.53h-6.53l-.82 3.63a5.72 5.72 0 01.67-.14 4.56 4.56 0 01.62-.05 6 6 0 014.53 1.86 6.55 6.55 0 011.8 4.76 6.72 6.72 0 01-2 4.93 6.58 6.58 0 01-4.85 2 6.71 6.71 0 01-6.81-5.45h4a3.53 3.53 0 001.22 1.43 3 3 0 001.67.48 2.88 2.88 0 002.15-.91 3.57 3.57 0 00.06-4.62 2.59 2.59 0 00-2-.89 2.68 2.68 0 00-1.24.31 4.5 4.5 0 00-1.19.94l-3.1-.7zM488.51 139.67h13.14v2l-9 18.53-3.22-1.56 7.52-15.39h-8.4zM524.39 139.67h9.37v3.53h-6.53l-.82 3.63a5.72 5.72 0 01.67-.14 4.7 4.7 0 01.63-.05 6 6 0 014.52 1.86 6.52 6.52 0 011.81 4.76 6.73 6.73 0 01-2 4.93 6.57 6.57 0 01-4.85 2 6.69 6.69 0 01-6.8-5.45h4a3.38 3.38 0 001.22 1.43 3 3 0 001.66.48 2.86 2.86 0 002.15-.91 3.53 3.53 0 00.06-4.62 2.64 2.64 0 00-3.22-.58 4.35 4.35 0 00-1.19.94l-3.11-.7z"/><path d="M4 155.94a2 2 0 01-1.27-.46 2 2 0 01-.37-2.68l27-39-11.64 2.58a2.1 2.1 0 01-.43 0 2 2 0 01-1.51-3.31l30.59-35.33-15.86 5.5a2.06 2.06 0 01-.65.11 2 2 0 01-1.42-3.41L105 2.59a2 2 0 011.38-.59 2 2 0 011.27.46 2 2 0 01.35 2.68L80 45.47 92.54 42a2 2 0 012 3.26l-31.8 35.68 15.87-6.43a2 2 0 012.19 3.24L5.43 155.33a2 2 0 01-1.43.61z" fill="#de1e2f"/><path class="cls-1" d="M106.38 4L75.21 48.88l17.87-5L55.53 86l23.83-9.65L4 153.94l29.92-43.22-16.62 3.69 35.46-41-22.9 7.95L106.38 4m0-4h-.06a4 4 0 00-2.79 1.19L27 78.53a4 4 0 004.15 6.6L40 82.07l-25.73 29.72a4 4 0 003 6.62 3.69 3.69 0 00.87-.1l6.65-1.47L.71 151.66a4 4 0 006.16 5.06l75.36-77.57a4 4 0 00-4.37-6.5l-7.92 3.21 26.12-29.3A4 4 0 0092 40l-7.18 2L109.6 6.37a4 4 0 00.78-2.37 4 4 0 00-4-4zm0 8z"/></g></g></svg>