<svg xmlns="http://www.w3.org/2000/svg" viewBox="0 0 130.77 185.95"><defs><style>.cls-1{fill:#de1e2f;}.cls-2{fill:#fff;}</style></defs><g id="Layer_2" data-name="Layer 2"><g id="Layer_2-2" data-name="Layer 2"><path class="cls-1" d="M6,183a3,3,0,0,1-2.47-4.71l30.36-43.85L22.08,137a2.94,2.94,0,0,1-.65.07,3,3,0,0,1-2.27-5L53,93,37,98.57a3,3,0,0,1-3.11-4.95L122.64,3.89A3,3,0,0,1,124.77,3a3,3,0,0,1,2.46,4.71L95.82,52.94l12.71-3.54a2.82,2.82,0,0,1,.81-.11,3,3,0,0,1,2.24,5l-35,39.25L92.3,87.17A3,3,0,0,1,95.58,92L8.15,182A3,3,0,0,1,6,183Z"/><path class="cls-2" d="M124.77,6h0m0,0L88.61,58.07l20.73-5.78L65.79,101.14,93.43,90,6,180,40.71,129.8l-19.28,4.29L62.57,86.52,36,95.73,124.77,6m0-6h-.11a6,6,0,0,0-4.08,1.7h0l-.09.08L31.73,91.51A6,6,0,0,0,36,101.73a5.86,5.86,0,0,0,2-.33l5.43-1.88L16.89,130.16a6,6,0,0,0,4.54,9.93,6.39,6.39,0,0,0,1.3-.14l4.33-1-26,37.55a6,6,0,0,0,9.23,7.6l87.43-90A6,6,0,0,0,93.43,84a5.89,5.89,0,0,0-2.25.44L87.4,85.92l26.42-29.64a6,6,0,0,0-4.48-10,5.9,5.9,0,0,0-1.61.22L103,47.82,129.61,9.54A6,6,0,0,0,124.83,0Zm0,12Z"/></g></g></svg>