<svg width="202" height="150" viewBox="0 0 202 150" fill="none" xmlns="http://www.w3.org/2000/svg">
<path d="M146.218 -3.6549e-05L24.3525 28.1348L52.4873 150L174.353 121.865L146.218 -3.6549e-05Z" fill="#FFAF45"/>
<path d="M18.1283 22.877V23.667H15.7167V36.5358H24.0326V23.6462H21.5794V22.8562H34.5937V23.6462H32.1406V51.1925H34.5937V51.9825H21.5378V51.1925H23.991V37.6793H15.6751V51.1925H18.0867V51.9825H5.20752V51.1925H7.6607V23.667H5.20752V22.877H18.1283Z" fill="#1A1A1A"/>
<path d="M50.2694 51.9827L49.8121 48.9474C49.0221 50.9016 47.7331 52.3985 43.9494 52.3985C40.1657 52.3985 37.5046 50.4858 37.5046 45.4547V32.9809H35.1865V32.2325H45.2383V46.4942C45.2383 50.0284 45.7373 50.569 46.7768 50.569C48.44 50.569 49.7289 48.8642 49.7289 45.7042V32.9393H47.8267V32.1909H57.4731V51.2343H59.7599V51.9827H50.2694Z" fill="#1A1A1A"/>
<path d="M62.6709 32.9394H60.384V32.1909H62.6709V26.8272L70.3943 24.9146V32.1909H75.7996V32.9394H70.3943V46.9308C70.3943 49.384 70.7685 50.7146 72.2238 50.7146C74.2196 50.7146 75.467 48.8851 75.8412 46.0577L76.548 46.1408C76.1738 49.384 74.8017 52.3777 69.729 52.3777C65.5711 52.3777 62.6709 51.1719 62.6709 46.0161V32.9394Z" fill="#1A1A1A"/>
<path d="M85.2479 41.1303V43.2924C85.2479 48.6145 86.2042 50.9845 89.4058 50.9845C93.1896 50.9845 94.8112 47.7829 95.2685 45.5377L96.0169 45.6208C95.4764 48.1987 94.1043 52.3983 87.1605 52.3983C80.7573 52.3983 77.1919 48.8224 77.1919 42.336C77.1919 35.3507 81.433 31.7749 88.2832 31.7749C93.3559 31.7749 95.8922 33.937 95.8922 37.0555C95.8922 39.6334 94.5201 40.9639 92.4411 40.9639C90.3622 40.9639 88.7405 39.8413 88.7405 37.5128C88.7413 37.0067 88.8112 36.5031 88.9485 36.016H90.3206C90.5022 35.5373 90.6007 35.031 90.6116 34.5191C90.6433 34.2494 90.6135 33.976 90.5244 33.7194C90.4353 33.4628 90.2892 33.2298 90.0972 33.0377C89.9051 32.8457 89.6721 32.6997 89.4155 32.6106C89.159 32.5215 88.8856 32.4916 88.6158 32.5233C86.1938 32.5233 85.2479 34.9349 85.2479 41.1303Z" fill="#1A1A1A"/>
<path d="M106.652 20.7981V36.0161C107.358 33.9372 108.73 31.7751 112.888 31.7751C116.755 31.7751 119.333 33.6877 119.333 38.7188V51.1926H121.63V51.9411H109.853V51.1926H111.558V37.6793C111.558 34.1451 111.059 33.7293 110.019 33.7293C108.273 33.7293 106.652 36.3488 106.652 39.7167V51.151H108.439V51.8995H96.6829V51.151H98.9593V21.5465H96.6829V20.7981H106.652Z" fill="#1A1A1A"/>
<path d="M132.264 32.1909V51.2342H134.592V51.9826H122.254V51.2342H124.53V32.9393H122.087V32.1909H132.264ZM128.522 21.5881C131.1 21.5881 132.68 22.8771 132.68 25.4134C132.68 27.6171 131.474 29.3219 128.522 29.3219C125.154 29.3219 124.364 27.2429 124.364 25.455C124.281 23.4176 125.403 21.5881 128.522 21.5881Z" fill="#1A1A1A"/>
<path d="M136.381 44.9556H136.88C138.419 50.0283 140.955 51.4836 144.365 51.4836C147.483 51.4836 148.606 50.3609 148.606 48.7809C148.606 46.9099 146.527 46.4941 143.408 45.6625C140.082 44.7477 136.381 43.4588 136.381 38.8435C136.381 34.6024 139.292 31.8165 143.658 31.8165C145.098 31.8206 146.519 32.1474 147.816 32.7729C148.17 32.9781 148.57 33.0924 148.98 33.1055C149.604 33.1055 149.895 32.7729 150.435 31.7334H150.893V38.095H150.394C148.897 34.2697 146.776 32.6897 143.824 32.6897C141.08 32.6897 139.957 33.8124 139.957 35.1013C139.957 37.014 142.452 37.4713 145.155 38.2198C148.439 39.0929 152.098 40.4235 152.098 45.3298C152.098 50.0699 148.98 52.4399 144.323 52.4399C142.585 52.4654 140.868 52.0506 139.333 51.2341C139.097 51.0679 138.828 50.9545 138.543 50.9015C138.003 50.9015 137.421 51.2757 136.756 52.4399H136.257L136.381 44.9556Z" fill="#1A1A1A"/>
<path d="M164.571 31.7749C171.557 31.7749 174.883 35.0597 174.883 41.7955C174.883 48.5314 171.765 52.3983 164.322 52.3983C157.336 52.3983 153.802 48.6561 153.802 42.1697C153.854 35.3507 157.877 31.7749 164.571 31.7749ZM166.9 40.2571C166.9 35.7665 166.775 32.5233 164.447 32.5233C161.91 32.5233 161.785 35.7665 161.785 40.465V43.7082C161.785 48.5314 161.869 51.6498 164.405 51.6498C166.775 51.6498 166.9 49.1967 166.9 43.7913V40.2571Z" fill="#1A1A1A"/>
<path d="M186.15 32.1907V36.016C186.857 33.937 188.229 31.7749 192.387 31.7749C196.254 31.7749 198.832 33.6875 198.832 38.7186V51.1925H201.16V51.9409H189.352V51.1925H191.057V37.6792C191.057 34.1449 190.558 33.7291 189.518 33.7291C187.772 33.7291 186.15 36.3486 186.15 39.7165V51.1509H187.938V51.8993H176.13V51.1509H178.417V32.8559H176.13V32.1075L186.15 32.1907Z" fill="#1A1A1A"/>
<path d="M22.7848 57.4709C30.0612 57.4709 34.3439 59.1341 34.3439 64.2796C34.3439 68.2712 31.8491 70.3917 27.4833 71.0986V71.1817C32.6807 71.847 35.7991 74.0507 35.7991 78.4581C35.7991 84.9029 30.3938 86.6077 22.5769 86.6077H10.4045V85.8177H13.1072V58.2609H10.4045V57.4709H22.7848ZM21.1632 71.057H22.2027C25.1964 71.057 26.0696 69.1443 26.0696 65.7348V63.7806C26.0696 59.789 25.3627 58.2609 22.4522 58.2609H21.1216L21.1632 71.057ZM21.1632 85.7761H23.1174C26.319 85.7761 27.2754 83.3645 27.2754 79.5392V77.3355C27.2754 73.926 26.2359 71.847 22.1611 71.847H21.2048L21.1632 85.7761Z" fill="#1A1A1A"/>
<path d="M47.3175 74.6745V85.8177H50.2697V86.5662H37.2969V85.8177H39.5838V67.5228H37.2969V66.7744H47.3175V70.766C47.59 69.4987 48.2951 68.3657 49.3117 67.5615C50.3283 66.7573 51.5932 66.332 52.8891 66.3586C55.3423 66.3586 57.2966 67.6476 57.2966 70.8076C57.2966 73.1776 56.0492 74.7576 53.8039 74.7576C51.0181 74.7576 49.646 73.0113 50.5607 70.0592H52.0576C52.8892 68.3544 52.0576 67.9802 51.1844 67.9802C49.1886 67.9386 47.3175 70.9323 47.3175 74.6745Z" fill="#1A1A1A"/>
<path d="M68.7727 66.3586C75.7581 66.3586 79.0844 69.6434 79.0844 76.3793C79.0844 83.1151 75.966 86.982 68.5233 86.982C61.5379 86.982 58.0037 83.2399 58.0037 76.7535C58.0037 69.9345 62.0784 66.3586 68.7727 66.3586ZM71.1012 74.8408C71.1012 70.3503 70.9764 67.1071 68.648 67.1071C66.1116 67.1071 65.9869 70.3502 65.9869 75.0487V78.2919C65.9869 83.1151 66.0701 86.2336 68.6064 86.2336C70.9764 86.2336 71.1012 83.7804 71.1012 78.3751V74.8408Z" fill="#1A1A1A"/>
<path d="M82.327 67.523H80.0505V66.7745H82.327V61.4108L90.0608 59.5085V66.7849H95.4661V67.5334H90.0608V81.5456C90.0608 83.9988 90.435 85.3293 91.8903 85.3293C93.8861 85.3293 95.1334 83.4998 95.5077 80.6724L96.2145 80.7556C95.8403 83.9988 94.4682 86.9925 89.3955 86.9925C85.2376 86.9925 82.327 85.7867 82.327 80.6309V67.523Z" fill="#1A1A1A"/>
<path d="M106.652 51.2344V70.5999C107.358 68.521 108.73 66.3589 112.888 66.3589C116.755 66.3589 119.333 68.2715 119.333 73.3026V85.7764H121.63V86.5248H109.853V85.7764H111.558V72.2631C111.558 68.7289 111.059 68.3131 110.019 68.3131C108.273 68.3131 106.652 70.9326 106.652 74.3005V85.7348H108.439V86.4833H96.6829V85.7348H98.9593V51.9828H96.6829V51.2344H106.652Z" fill="#1A1A1A"/>
<path d="M133.136 66.3586C139.664 66.3586 142.492 69.6434 142.201 75.8387H130.475V77.4603C130.475 82.3667 131.348 85.6931 135.382 85.6931C138.5 85.6931 140.579 83.7388 141.452 80.4956L142.201 80.6204C141.244 84.1962 139.082 86.9404 133.178 86.9404C125.777 86.9404 122.45 82.6993 122.45 76.6703C122.45 69.5187 127.357 66.3586 133.136 66.3586ZM134.8 75.0072V72.9282C134.8 68.5624 134.467 67.1071 132.721 67.1071C131.265 67.1071 130.475 68.5208 130.475 72.9282V75.0072H134.8Z" fill="#1A1A1A"/>
<path d="M153.719 74.6745V85.8177H156.671V86.5662H143.698V85.8177H145.985V67.5228H143.698V66.7744H153.719V70.766C153.991 69.4987 154.696 68.3657 155.713 67.5615C156.729 66.7573 157.994 66.332 159.29 66.3586C161.743 66.3586 163.698 67.6476 163.698 70.8076C163.698 73.1776 162.45 74.7576 160.205 74.7576C157.419 74.7576 156.047 73.0113 156.962 70.0592H158.459C159.29 68.3544 158.459 67.9802 157.585 67.9802C155.59 67.9386 153.719 70.9323 153.719 74.6745Z" fill="#1A1A1A"/>
<path d="M164.738 79.5391H165.289C166.827 84.6118 169.364 86.0671 172.773 86.0671C175.891 86.0671 177.014 84.9444 177.014 83.3644C177.014 81.4934 174.935 81.0776 171.817 80.246C168.49 79.3312 164.79 78.0423 164.79 73.427C164.79 69.1859 167.7 66.4001 172.066 66.4001C173.506 66.4042 174.927 66.7309 176.224 67.3564C176.579 67.5616 176.979 67.6759 177.388 67.689C178.012 67.689 178.303 67.3564 178.844 66.3169H179.301V72.6785H178.802C177.305 68.8532 175.185 67.2732 172.232 67.2732C169.488 67.2732 168.366 68.3959 168.366 69.6848C168.366 71.5975 170.86 72.0549 173.563 72.8033C176.848 73.6765 180.507 75.007 180.507 79.9134C180.507 84.6534 177.388 87.0234 172.731 87.0234C170.993 87.049 169.277 86.6341 167.742 85.8176C167.505 85.6514 167.236 85.538 166.952 85.485C166.411 85.485 165.829 85.8592 165.164 87.0234H164.665L164.738 79.5391Z" fill="#1A1A1A"/>
<path d="M193.344 93.25H0V129.632H193.344V93.25Z" fill="#1A1A1A"/>
<path d="M26.8606 114.497C26.5386 114.545 26.248 114.717 26.0498 114.975C25.1092 115.901 24.0155 116.657 22.817 117.21C21.237 117.943 19.5172 118.326 17.7755 118.333C16.4668 118.382 15.1757 118.019 14.0853 117.293C13.6173 116.964 13.2402 116.521 12.9894 116.007C12.7386 115.493 12.6221 114.923 12.6508 114.352C12.7898 112.386 13.6397 110.539 15.0417 109.154C16.5254 107.419 18.3749 106.035 20.4574 105.1C21.967 104.419 23.6036 104.065 25.2598 104.061C26.1542 104.014 27.0436 104.22 27.8273 104.653C28.1604 104.845 28.4339 105.125 28.6174 105.463C28.8009 105.8 28.8872 106.182 28.8668 106.566C28.8703 107.009 28.7794 107.447 28.6002 107.852C28.4209 108.257 28.1575 108.62 27.8273 108.915C27.264 109.538 26.5824 110.043 25.8221 110.4C25.0619 110.756 24.2382 110.959 23.3991 110.994C22.7911 111.017 22.1901 110.858 21.6735 110.537C21.4872 110.433 21.3309 110.282 21.2198 110.1C21.1087 109.918 21.0465 109.71 21.0395 109.497C21.0944 109.119 21.2366 108.758 21.4549 108.444C21.6732 108.13 21.9616 107.872 22.2972 107.688C22.7442 107.533 22.8378 107.283 22.8378 107.096C22.8378 106.909 22.5259 106.524 21.7983 106.992C20.5821 107.844 19.9584 108.707 19.9584 109.591C19.9718 109.965 20.0861 110.329 20.2892 110.643C20.4923 110.958 20.7767 111.212 21.1122 111.379C21.9205 111.832 22.8365 112.058 23.7629 112.033C24.8403 112.034 25.9048 111.799 26.8817 111.345C27.8586 110.891 28.7242 110.228 29.4177 109.404C30.0886 108.697 30.4609 107.759 30.4572 106.784C30.4572 105.121 29.4177 103.998 27.5466 103.458C26.7572 103.245 25.942 103.144 25.1246 103.156C23.2472 103.191 21.3913 103.564 19.6466 104.258C17.7918 104.96 16.093 106.02 14.6466 107.377C12.9045 108.889 11.6464 110.881 11.0292 113.104C10.8981 113.646 10.8283 114.2 10.8213 114.757C10.7887 115.868 11.1578 116.953 11.8608 117.813C12.4666 118.481 13.2168 119.003 14.0543 119.338C14.8919 119.673 15.7948 119.813 16.6944 119.746C20.4321 119.616 24.0156 118.224 26.8606 115.796C26.9657 115.717 27.0518 115.615 27.113 115.498C27.1741 115.381 27.2086 115.252 27.214 115.121C27.266 114.632 27.0373 114.497 26.8606 114.497Z" fill="#FFFCF8"/>
<path d="M62.1715 113.115C63.7515 112.512 64.0945 112.179 64.1153 111.857V111.42L63.7203 111.607C63.2885 111.872 62.7922 112.012 62.2858 112.013C62.3387 111.805 62.3701 111.593 62.3794 111.379C62.3985 111.175 62.3712 110.969 62.2997 110.777C62.2282 110.585 62.1142 110.411 61.9663 110.27C61.8185 110.128 61.6405 110.021 61.4456 109.957C61.2507 109.894 61.0441 109.875 60.841 109.903C59.8535 109.903 58.6373 110.724 57.1196 112.429C56.6244 112.966 56.1693 113.54 55.7579 114.144C54.8921 114.997 53.9251 115.74 52.8785 116.358C52.4097 116.599 51.9232 116.804 51.4232 116.971C50.9471 117.154 50.4458 117.263 49.9368 117.293C48.8973 117.293 48.8973 116.888 48.8973 116.722C49.0667 115.752 49.4899 114.845 50.1239 114.092C50.5988 113.31 51.1526 112.578 51.7767 111.909C51.9638 111.909 52.6602 111.774 55.0406 111.493C58.3774 111.108 58.3774 110.963 58.3774 110.682C58.374 110.619 58.3527 110.558 58.3159 110.506C58.2791 110.455 58.2283 110.415 58.1695 110.391H58.1071L54.4481 110.443H53.3463C54.1363 109.612 54.2091 109.404 54.2091 109.227C54.1967 109.078 54.1409 108.935 54.0486 108.817C53.9563 108.699 53.8314 108.61 53.6893 108.562C53.4605 108.443 53.2087 108.376 52.9513 108.364C52.7642 108.364 52.4939 108.468 51.8078 109.258L50.9451 110.339H49.5834H49.3962H49.3339C48.6686 110.506 48.5335 110.859 48.5335 111.129C48.5335 111.4 48.6478 111.919 49.5729 111.898C49.2819 112.387 48.9181 113.032 48.4607 113.842L48.284 114.196C47.4023 115.237 46.1927 115.949 44.8537 116.212C45.0096 115.599 45.2175 114.705 45.467 113.52C45.6142 112.565 45.9014 111.637 46.3194 110.765L46.5688 110.464L46.9015 110.079C47.0886 109.891 47.1964 109.638 47.2029 109.373C47.2029 109.082 47.0678 108.583 46.1634 108.583C45.9867 108.583 45.7061 108.676 44.3963 109.788L41.2779 112.439C40.2384 113.343 39.4484 114.092 38.887 114.653C37.9241 115.67 36.7825 116.502 35.5191 117.106C35.4242 117.15 35.3219 117.174 35.2177 117.179C35.1137 117.179 35.1033 116.992 35.1033 116.826C35.1822 116.29 35.4255 115.793 35.7998 115.402C36.2779 114.767 37.0056 113.925 37.9411 112.907C38.8767 111.888 39.0638 111.597 39.0638 111.42C39.0638 111.244 38.9182 110.537 37.9099 110.537C37.5773 110.537 36.964 110.786 35.2177 112.761C33.9703 114.175 33.1387 115.111 32.6398 115.516C31.0493 117.002 30.2074 117.314 29.7604 117.314C29.7485 117.266 29.7485 117.216 29.7604 117.169C29.7604 116.794 30.0099 116.015 31.2053 114.476C31.9416 113.492 32.77 112.58 33.6792 111.753C33.7523 111.694 33.8115 111.62 33.8528 111.535C33.8941 111.451 33.9165 111.358 33.9183 111.264C33.9183 111.015 33.804 110.599 32.9932 110.599C32.7011 110.612 32.4149 110.686 32.1534 110.817C31.8919 110.947 31.6609 111.132 31.4755 111.358L28.0244 115.007C27.8683 115.147 27.7685 115.339 27.7438 115.547C27.7409 115.595 27.748 115.643 27.7645 115.689C27.781 115.734 27.8066 115.776 27.8397 115.811C27.8728 115.846 27.9127 115.874 27.957 115.893C28.0013 115.912 28.049 115.921 28.0972 115.921C28.2588 115.925 28.4153 115.865 28.5338 115.755C28.3714 116.079 28.2793 116.433 28.2635 116.794V116.982C28.2546 117.166 28.2843 117.349 28.3506 117.521C28.4169 117.693 28.5184 117.849 28.6486 117.979C28.7788 118.109 28.9348 118.211 29.1066 118.277C29.2784 118.343 29.4621 118.373 29.646 118.364C30.6855 118.364 31.9537 117.595 33.5753 116.025C33.4851 116.333 33.4362 116.651 33.4298 116.971C33.4291 117.161 33.4764 117.349 33.5673 117.516C33.6581 117.683 33.7896 117.825 33.9495 117.927C34.2297 118.144 34.5724 118.265 34.9266 118.271H35.4983C36.2977 117.984 37.0325 117.543 37.6605 116.971C38.1386 116.587 38.596 116.202 39.0222 115.817L39.1573 115.745C39.3388 116.375 39.6465 116.962 40.0617 117.47C40.2937 117.712 40.5757 117.901 40.8881 118.023C41.2004 118.145 41.5356 118.198 41.8704 118.177C42.5311 118.196 43.1868 118.057 43.783 117.772L44.5523 117.314C45.2257 117.195 45.8844 117.003 46.5169 116.742C46.9081 116.535 47.2834 116.299 47.6395 116.036C47.6254 116.184 47.6254 116.334 47.6395 116.483C47.6069 116.755 47.6452 117.031 47.7509 117.284C47.8565 117.538 48.0258 117.759 48.2424 117.927C48.6694 118.17 49.1552 118.288 49.6457 118.271C50.9983 118.233 52.3188 117.851 53.4814 117.158C54.0121 116.874 54.5165 116.544 54.9887 116.171C54.9887 116.244 54.9887 116.306 54.9887 116.368C54.9975 116.741 55.1169 117.103 55.3317 117.408C55.4533 117.631 55.6338 117.818 55.8537 117.946C56.0736 118.074 56.3245 118.14 56.5791 118.135H56.9741C58.0136 118.135 59.157 117.397 60.5395 115.88C61.7245 114.57 62.2754 113.676 62.2754 113.073L62.1715 113.115ZM60.1653 112.252C60.3976 112.592 60.6817 112.894 61.0073 113.146C60.6745 113.996 60.1393 114.753 59.448 115.35C58.4086 116.451 57.5562 117.023 56.9221 117.023C56.8078 117.023 56.5791 117.023 56.5791 116.42C56.5791 116.077 56.8389 115.381 58.0759 113.946C59.1674 112.689 59.8015 112.314 60.1653 112.252ZM44.4899 111.067V111.264C44.3972 112.319 44.2058 113.364 43.9182 114.383C43.5024 115.921 43.1801 116.223 43.0346 116.306C42.7516 116.459 42.4304 116.528 42.1095 116.503C41.7068 116.504 41.3181 116.356 41.018 116.088C40.8667 115.961 40.7461 115.801 40.6651 115.621C40.5841 115.441 40.5448 115.245 40.5502 115.048C40.5465 114.975 40.5465 114.903 40.5502 114.83C40.5502 114.736 40.6958 114.352 42.0783 113.063C42.8384 112.346 43.6439 111.68 44.4899 111.067Z" fill="#FFFCF8"/>
<path d="M79.2397 113.718C79.0734 113.718 78.8759 113.811 78.4393 114.248C77.7624 114.976 77.0017 115.621 76.1732 116.171C75.7169 116.536 75.1715 116.773 74.5932 116.857C74.3728 116.881 74.1507 116.833 73.9591 116.722C73.9591 116.722 73.8343 116.618 73.8655 116.358C74.1952 115.252 74.8037 114.25 75.6327 113.447C77.3166 111.514 77.3166 111.504 77.3166 111.368C77.3127 111.241 77.275 111.117 77.2074 111.01C77.1398 110.902 77.0448 110.814 76.932 110.755C76.7259 110.618 76.4833 110.545 76.2355 110.547C75.4871 110.547 74.3333 111.098 72.7117 112.231L72.6078 112.304L70.8926 113.614C71.0174 113.395 71.1733 113.146 71.3604 112.844C72.3999 111.275 72.3999 111.119 72.3999 111.005C72.395 110.886 72.3587 110.77 72.2948 110.67C72.2309 110.569 72.1417 110.488 72.0361 110.433C71.8292 110.307 71.5922 110.238 71.35 110.235C70.8926 110.235 69.9571 110.516 67.1401 112.855C66.3916 113.489 65.7368 114.05 65.1858 114.539C65.3833 114.217 65.6224 113.832 65.9239 113.364C67.2856 111.285 67.2856 111.15 67.2856 111.036C67.291 110.938 67.2748 110.841 67.2384 110.75C67.2019 110.66 67.146 110.579 67.0746 110.512C67.0031 110.446 66.918 110.396 66.8251 110.366C66.7323 110.336 66.6339 110.327 66.5372 110.339C66.3531 110.331 66.1697 110.366 66.0017 110.442C65.8338 110.518 65.6861 110.632 65.5705 110.776C64.4686 112.179 63.6578 113.177 63.1796 113.728C62.6738 114.309 62.1323 114.857 61.5581 115.37C61.4741 115.43 61.4045 115.508 61.3541 115.598C61.3038 115.687 61.274 115.787 61.267 115.89C61.2624 115.944 61.2694 115.998 61.2875 116.048C61.3056 116.099 61.3344 116.145 61.3718 116.183C61.4093 116.222 61.4546 116.252 61.5047 116.271C61.5547 116.29 61.6084 116.299 61.662 116.296C61.8179 116.296 62.005 116.202 62.5248 115.734L62.9718 115.308C62.6456 115.858 62.4137 116.459 62.2857 117.086C62.2923 117.356 62.4042 117.613 62.5975 117.803C62.6878 117.914 62.802 118.003 62.9315 118.065C63.0611 118.126 63.2027 118.157 63.3459 118.156C63.5019 118.156 63.6162 118.156 64.8532 116.743C65.6224 115.869 66.4644 114.986 67.3584 114.123C68.1085 113.412 68.9228 112.772 69.7908 112.21L68.6161 114.393C68.0842 115.313 67.6952 116.309 67.4623 117.345C67.4493 117.461 67.4624 117.578 67.5005 117.688C67.5386 117.798 67.6007 117.898 67.6825 117.98C67.7642 118.063 67.8634 118.127 67.9728 118.166C68.0822 118.205 68.199 118.22 68.3147 118.208C68.4454 118.219 68.5765 118.194 68.6938 118.135C68.8111 118.076 68.9101 117.987 68.98 117.876C69.6109 116.482 70.5533 115.251 71.7346 114.279C72.4829 113.607 73.2861 112.998 74.1358 112.46C73.8343 112.896 73.5225 113.364 73.2315 113.884C72.7648 114.583 72.4791 115.386 72.3999 116.223C72.3999 116.992 72.7429 117.896 74.3541 117.896C75.2121 117.793 76.025 117.455 76.7033 116.919C77.6839 116.277 78.5782 115.512 79.3644 114.643C79.4545 114.58 79.5294 114.498 79.5834 114.403C79.6374 114.308 79.6691 114.201 79.6763 114.092C79.677 114.037 79.6657 113.983 79.6432 113.933C79.6206 113.883 79.5873 113.838 79.5456 113.802C79.5039 113.767 79.455 113.741 79.4021 113.726C79.3492 113.711 79.2938 113.708 79.2397 113.718Z" fill="#FFFCF8"/>
<path d="M99.8001 112.491C99.8002 112.439 99.7891 112.389 99.7676 112.342C99.746 112.295 99.7145 112.254 99.6753 112.221C99.4561 112.082 99.1929 112.03 98.9373 112.075H98.7814L96.7648 112.023C98.8437 109.518 100.081 108.031 100.445 107.512C101.042 106.841 101.407 105.995 101.484 105.1C101.481 104.717 101.365 104.343 101.15 104.025C100.936 103.707 100.632 103.459 100.278 103.312C99.2293 102.851 98.0851 102.648 96.9415 102.72C95.1677 102.772 93.4133 103.105 91.7441 103.707C89.7398 104.385 87.8532 105.371 86.1516 106.628C83.6985 108.468 82.4615 110.339 82.4615 112.179C82.4455 112.552 82.5148 112.924 82.6644 113.266C82.8139 113.609 83.0396 113.912 83.3242 114.154C83.9849 114.658 84.8022 114.912 85.6319 114.871C87.34 114.878 88.9824 114.213 90.2056 113.021C90.6031 112.731 90.9385 112.365 91.192 111.944C91.4456 111.522 91.6121 111.055 91.6817 110.568C91.693 110.327 91.6087 110.091 91.4472 109.912C91.2856 109.733 91.0598 109.625 90.8189 109.611L90.4447 109.549L90.5175 109.923C90.5256 109.971 90.5256 110.021 90.5175 110.069C90.3664 110.952 89.9102 111.754 89.2285 112.335C88.5432 113.152 87.5738 113.679 86.5155 113.811H86.1205C84.2494 113.811 84.0415 112.948 84.0415 112.293C84.1066 111.432 84.4208 110.609 84.9458 109.923C85.6318 108.934 86.4785 108.066 87.451 107.356C88.9652 106.21 90.6392 105.292 92.4197 104.632C93.9036 104.037 95.479 103.703 97.0766 103.645C99.4155 103.645 99.4155 104.632 99.4155 104.955C99.29 105.853 98.8908 106.692 98.272 107.356C96.4737 109.653 95.1536 111.254 94.5819 112.013H93.5632H92.5237C92.2364 112.016 91.9584 112.114 91.7337 112.293C91.453 112.501 91.3283 112.668 91.3283 112.844C91.3253 112.946 91.3614 113.044 91.4291 113.12C91.4969 113.195 91.591 113.242 91.6921 113.25C92.3882 113.236 93.0826 113.177 93.7711 113.073C92.7316 114.227 91.6921 115.443 90.6526 116.701C89.0622 118.697 88.8439 119.289 88.8335 119.549C88.8198 119.61 88.8201 119.674 88.8345 119.735C88.8489 119.796 88.877 119.854 88.9167 119.902C89.0145 119.99 89.1304 120.055 89.2562 120.093C89.3819 120.13 89.5145 120.14 89.6443 120.121C90.0779 120.131 90.5024 119.995 90.8501 119.736L91.5362 119.403C92.0039 119.216 92.243 119.071 92.243 118.832C92.243 118.593 91.8376 118.499 91.7129 118.499C92.188 117.774 92.7088 117.079 93.2721 116.42C94.4571 114.944 95.3511 113.863 96.0372 113.094C96.2437 113.059 96.4519 113.035 96.6608 113.021L98.7398 113.073C98.9477 113.073 99.8001 113.073 99.8001 112.491Z" fill="#FFFCF8"/>
<path d="M133.532 110.443C133.829 110.447 134.121 110.356 134.363 110.183C134.491 110.111 134.597 110.007 134.671 109.881C134.746 109.755 134.787 109.612 134.789 109.466C134.786 109.315 134.741 109.167 134.661 109.039C134.58 108.911 134.467 108.807 134.332 108.738C134.078 108.575 133.782 108.488 133.48 108.489C132.44 108.489 132.274 109.04 132.274 109.372C132.283 109.523 132.325 109.67 132.397 109.803C132.469 109.936 132.569 110.051 132.69 110.142C132.927 110.336 133.225 110.443 133.532 110.443Z" fill="#FFFCF8"/>
<path d="M163.917 110.443C164.214 110.447 164.506 110.356 164.748 110.183C164.876 110.111 164.982 110.007 165.056 109.881C165.131 109.755 165.172 109.612 165.175 109.466C165.171 109.315 165.126 109.167 165.046 109.039C164.965 108.911 164.852 108.807 164.717 108.738C164.466 108.576 164.174 108.49 163.875 108.489C162.836 108.489 162.659 109.04 162.659 109.372C162.668 109.523 162.71 109.67 162.782 109.803C162.854 109.936 162.954 110.051 163.075 110.142C163.313 110.335 163.61 110.441 163.917 110.443Z" fill="#FFFCF8"/>
<path d="M170.859 113.115C172.45 112.512 172.793 112.179 172.814 111.857V111.42L172.419 111.607C171.991 111.872 171.498 112.012 170.995 112.013C171.04 111.811 171.064 111.606 171.067 111.399C171.088 111.196 171.062 110.99 170.992 110.798C170.922 110.606 170.809 110.432 170.662 110.29C170.515 110.148 170.337 110.041 170.143 109.978C169.948 109.914 169.742 109.896 169.539 109.923C168.552 109.923 167.336 110.745 165.818 112.449C165.323 112.99 164.864 113.563 164.446 114.164L164.248 114.497C163.314 115.511 162.214 116.358 160.995 117.002C160.613 117.272 160.17 117.44 159.706 117.491C159.571 117.491 159.342 117.491 159.342 116.93C159.342 116.659 159.581 115.89 161.151 114.102L161.826 113.302C162.055 113.021 162.242 112.813 162.367 112.668L162.741 112.252C162.852 112.137 162.956 112.015 163.053 111.888L163.105 111.815V111.732C163.105 111.399 162.772 111.212 162.668 111.14C162.457 111.013 162.218 110.942 161.972 110.932C161.265 110.932 160.444 111.67 159.394 113.208C159.092 113.655 158.843 114.05 158.635 114.435C157.839 115.193 156.961 115.859 156.016 116.42C155.547 116.661 155.06 116.866 154.56 117.033C154.084 117.214 153.583 117.323 153.074 117.356C152.034 117.356 152.034 116.95 152.034 116.784C152.209 115.816 152.632 114.91 153.261 114.154C153.74 113.375 154.293 112.644 154.914 111.971C155.101 111.971 155.808 111.836 158.178 111.555C161.514 111.171 161.514 111.025 161.514 110.745C161.511 110.681 161.49 110.62 161.453 110.569C161.416 110.517 161.365 110.477 161.307 110.454H161.244L157.585 110.506H156.494C157.273 109.674 157.346 109.466 157.346 109.289C157.337 109.139 157.282 108.995 157.189 108.876C157.096 108.758 156.97 108.67 156.826 108.624C156.598 108.505 156.346 108.437 156.088 108.427C155.901 108.427 155.631 108.53 154.945 109.32C154.602 109.736 154.28 110.1 153.999 110.422H152.606H152.419H152.357C151.702 110.589 151.556 110.942 151.556 111.212C151.556 111.483 151.681 112.002 152.596 111.982C152.315 112.47 151.941 113.115 151.494 113.925C151.411 114.061 151.359 114.185 151.286 114.31C149.124 116.607 148.105 117.127 147.627 117.127C147.554 117.127 147.409 117.127 147.336 116.805V116.732C147.336 116.41 147.596 115.693 148.833 114.029C150.423 111.95 150.423 111.826 150.423 111.701C150.423 111.576 150.319 111.389 150.08 111.192C149.877 111.012 149.613 110.919 149.342 110.932H149.186L149.072 110.672C148.936 110.45 148.739 110.272 148.505 110.158C148.272 110.044 148.01 109.999 147.752 110.027C145.906 110.19 144.183 111.022 142.908 112.366C142.423 112.792 141.971 113.254 141.556 113.749C141.528 113.759 141.502 113.777 141.484 113.801C140.658 114.732 139.718 115.556 138.687 116.254C137.854 116.958 136.83 117.399 135.746 117.522C135.619 117.531 135.493 117.514 135.373 117.473C135.254 117.432 135.143 117.367 135.049 117.283C134.831 117.065 134.81 116.95 134.81 116.909C134.823 116.677 134.857 116.447 134.914 116.223C134.974 115.954 135.079 115.697 135.226 115.464L136.203 114.196C136.673 113.678 137.211 113.226 137.804 112.855C138.215 112.561 138.658 112.313 139.124 112.117V112.169C138.917 112.425 138.788 112.735 138.75 113.063C138.75 113.302 138.864 113.686 139.654 113.686C139.894 113.695 140.132 113.639 140.342 113.524C140.553 113.408 140.728 113.238 140.85 113.031C141.074 112.691 141.2 112.295 141.213 111.888C141.22 111.701 141.18 111.515 141.099 111.347C141.017 111.179 140.896 111.032 140.746 110.921C140.432 110.687 140.046 110.569 139.654 110.589C138.05 110.754 136.567 111.514 135.496 112.72C135.077 113.109 134.688 113.53 134.332 113.977C134.123 114.117 133.937 114.289 133.781 114.487C132.849 115.503 131.748 116.35 130.527 116.992C130.143 117.256 129.701 117.423 129.239 117.48C129.103 117.48 128.875 117.48 128.875 116.919C128.875 116.586 129.187 115.828 130.683 114.092L131.359 113.291C131.588 113.011 131.764 112.803 131.9 112.657L132.274 112.241C132.385 112.126 132.489 112.005 132.586 111.878L132.638 111.805V111.722C132.638 111.389 132.305 111.202 132.201 111.129C131.99 111.003 131.75 110.931 131.505 110.921C130.798 110.921 129.977 111.659 128.927 113.198C128.637 113.605 128.376 114.032 128.147 114.476L127.856 114.767C127.31 115.297 126.715 115.774 126.078 116.191C125.3 116.783 124.371 117.144 123.397 117.231C122.815 117.231 122.565 116.992 122.565 116.42C122.773 115.371 123.308 114.414 124.093 113.686L125.819 111.732V111.659C125.862 111.538 125.865 111.406 125.828 111.282C125.79 111.159 125.714 111.05 125.611 110.973C125.457 110.797 125.241 110.689 125.008 110.672C124.876 110.659 124.744 110.681 124.623 110.734L123.979 111.088C123.714 111.246 123.414 111.335 123.106 111.347C122.752 111.347 122.648 111.275 122.607 111.212L123.126 110.589C123.51 110.248 123.754 109.778 123.812 109.269C123.812 109.102 123.76 108.562 122.981 108.562C122.201 108.562 121.713 109.269 121.307 110.641C120.497 111.932 119.549 113.131 118.48 114.216C117.648 115.048 117.025 115.058 116.65 114.404C116.495 114.139 116.372 113.856 116.287 113.562C116.338 113.374 116.422 113.104 116.536 112.74C116.664 112.297 116.734 111.84 116.744 111.379C116.771 111.183 116.719 110.985 116.6 110.827C116.481 110.669 116.305 110.565 116.11 110.537H115.84C115.247 110.537 114.53 110.849 114.53 112.325C114.521 112.723 114.577 113.119 114.696 113.499C114.36 114.275 113.881 114.981 113.282 115.578C112.703 116.349 111.852 116.869 110.902 117.033C110.838 117.04 110.774 117.026 110.718 116.994C110.662 116.963 110.618 116.915 110.59 116.857C110.512 116.713 110.47 116.553 110.465 116.389C110.674 115.343 111.192 114.383 111.952 113.634C112.93 112.437 113.971 111.292 115.07 110.204L117.045 108.271L117.264 108.052L117.482 108.167V107.751C117.48 107.62 117.445 107.492 117.379 107.38C117.314 107.267 117.22 107.173 117.108 107.106C115.975 106.327 114.197 107.533 111.692 110.776C110.789 111.905 109.983 113.108 109.28 114.372C107.201 116.576 106.162 117.075 105.725 117.075C105.642 117.075 105.507 117.075 105.434 116.753V116.68C105.434 116.358 105.694 115.641 106.931 113.977C108.532 111.898 108.532 111.774 108.532 111.649C108.532 111.524 108.428 111.337 108.179 111.14C107.976 110.96 107.711 110.867 107.441 110.88H107.285L107.17 110.62C107.034 110.398 106.837 110.22 106.604 110.106C106.37 109.992 106.109 109.947 105.85 109.975C104.004 110.138 102.282 110.97 101.006 112.314C99.239 113.905 98.3762 115.246 98.3762 116.472C98.3753 116.754 98.4476 117.032 98.5861 117.278C98.7245 117.524 98.9245 117.73 99.1662 117.875C99.5836 118.149 100.071 118.297 100.57 118.302C101.443 118.125 102.246 117.695 102.877 117.065L103.917 116.181C103.917 116.181 103.917 116.254 103.917 116.285C103.905 116.676 104.024 117.059 104.256 117.374C104.488 117.689 104.819 117.916 105.195 118.021C106.089 118.322 107.274 117.761 108.771 116.327C108.833 117.865 109.644 118.208 110.341 118.208C111.447 118.164 112.503 117.734 113.324 116.992C114.164 116.336 114.87 115.524 115.403 114.601C115.578 114.98 115.854 115.304 116.2 115.537C116.547 115.769 116.951 115.902 117.368 115.921C117.737 115.908 118.095 115.797 118.407 115.599C118.49 115.563 118.567 115.513 118.636 115.453C118.825 115.316 119.002 115.163 119.166 114.996C119.436 114.726 119.769 114.372 120.205 113.853L121.817 111.961C122.005 112.252 122.3 112.457 122.638 112.532C122.297 113.008 121.998 113.512 121.744 114.04C121.388 114.714 121.192 115.461 121.172 116.223C121.143 116.507 121.179 116.795 121.277 117.064C121.374 117.333 121.531 117.576 121.736 117.776C121.941 117.976 122.188 118.127 122.46 118.218C122.731 118.309 123.019 118.337 123.303 118.302C124.541 118.178 125.717 117.702 126.692 116.93L127.451 116.358C127.44 116.468 127.44 116.58 127.451 116.69C127.451 118.208 128.407 118.437 128.979 118.437C129.44 118.448 129.898 118.37 130.33 118.208L130.902 117.979C131.122 117.884 131.331 117.766 131.525 117.626L132.014 117.293C132.139 117.21 132.315 117.075 132.554 116.878L133.012 116.503L133.282 116.264C133.277 116.354 133.277 116.444 133.282 116.535C133.282 117.179 133.594 118.031 135.06 118.406C135.246 118.456 135.438 118.481 135.631 118.478C136.836 118.37 137.987 117.931 138.958 117.21C139.449 116.896 139.917 116.549 140.361 116.171C140.356 116.268 140.356 116.365 140.361 116.462C140.36 116.744 140.432 117.022 140.571 117.268C140.709 117.514 140.909 117.719 141.151 117.865C141.568 118.138 142.055 118.286 142.554 118.291C143.427 118.112 144.229 117.682 144.862 117.054L145.901 116.171C145.901 116.171 145.901 116.243 145.901 116.275C145.89 116.665 146.009 117.049 146.241 117.363C146.473 117.678 146.803 117.906 147.18 118.011C147.345 118.061 147.517 118.085 147.689 118.083C148.49 118.083 149.488 117.512 150.714 116.358C150.714 116.41 150.714 116.472 150.714 116.524C150.681 116.798 150.72 117.075 150.827 117.329C150.935 117.582 151.108 117.803 151.328 117.969C151.75 118.212 152.233 118.331 152.72 118.312C154.076 118.275 155.4 117.892 156.567 117.2C157.063 116.932 157.536 116.622 157.98 116.275C157.953 116.408 157.936 116.544 157.928 116.68C157.928 118.198 158.885 118.426 159.456 118.426C159.917 118.438 160.376 118.36 160.808 118.198L161.379 117.969C161.597 117.87 161.806 117.752 162.003 117.616L162.492 117.283C162.616 117.2 162.793 117.065 163.032 116.867L163.49 116.493L163.697 116.306C163.697 116.306 163.697 116.379 163.697 116.41C163.702 116.783 163.821 117.147 164.04 117.449C164.161 117.671 164.34 117.856 164.558 117.985C164.776 118.113 165.025 118.179 165.277 118.177H165.683C166.722 118.177 167.866 117.439 169.238 115.921C170.423 114.611 170.974 113.718 170.974 113.115H170.859ZM168.864 112.252C169.093 112.594 169.378 112.896 169.706 113.146C169.363 113.991 168.83 114.745 168.146 115.35C167.107 116.451 166.255 117.023 165.62 117.023C165.496 117.023 165.277 117.023 165.277 116.42C165.277 116.077 165.537 115.381 166.774 113.946C167.866 112.688 168.5 112.314 168.864 112.252ZM141.837 116.722C141.837 115.88 142.648 114.757 144.259 113.406C145.87 112.054 147.19 111.327 148.136 111.327C148.242 111.32 148.347 111.346 148.438 111.399L145.943 114.518C144.342 116.358 143.084 117.283 142.201 117.283C142.107 117.262 141.879 117.262 141.879 116.722H141.837ZM99.9251 116.722C99.9251 115.869 100.746 114.757 102.347 113.406C103.948 112.054 105.278 111.327 106.224 111.327C106.33 111.32 106.435 111.346 106.526 111.399L104.031 114.518C102.43 116.358 101.172 117.283 100.289 117.283C100.195 117.262 99.9666 117.262 99.9666 116.722H99.9251Z" fill="#FFFCF8"/>
<path d="M182.128 113.718C181.993 113.718 181.879 113.79 181.473 114.217C181.429 114.282 181.38 114.344 181.328 114.404C179.135 116.587 178.147 117.044 177.69 117.044C177.69 117.044 177.606 116.971 177.606 116.587C177.68 115.98 177.925 115.406 178.313 114.934C178.878 114.154 179.493 113.411 180.153 112.709C180.548 112.324 180.896 111.895 181.193 111.431C181.241 111.33 181.266 111.22 181.265 111.108C181.265 110.859 181.172 110.287 180.309 110.287C180.237 110.276 180.163 110.276 180.091 110.287C179.54 110.287 178.293 110.765 173.771 114.767C174.412 113.67 175.142 112.627 175.954 111.649C176.017 111.527 176.053 111.392 176.058 111.254C176.058 111.036 175.964 110.526 175.122 110.526C174.992 110.529 174.865 110.561 174.75 110.621C174.635 110.68 174.534 110.765 174.457 110.869C173.074 112.345 172.201 113.302 171.785 113.801C171.287 114.352 170.76 114.876 170.205 115.37C170.124 115.432 170.057 115.51 170.008 115.6C169.96 115.689 169.931 115.788 169.925 115.89C169.92 115.944 169.927 115.997 169.945 116.048C169.963 116.099 169.992 116.145 170.03 116.183C170.067 116.222 170.112 116.251 170.162 116.271C170.212 116.29 170.266 116.299 170.32 116.296C170.465 116.296 170.663 116.202 171.182 115.734L171.629 115.308L171.442 115.703C171.246 116.081 171.129 116.495 171.099 116.919C171.088 117.224 171.179 117.525 171.359 117.772C171.451 117.894 171.57 117.993 171.707 118.06C171.845 118.127 171.996 118.16 172.149 118.156C172.295 118.156 172.451 118.156 173.615 116.805C174.332 115.973 175.143 115.1 176.006 114.227C176.568 113.663 177.165 113.135 177.794 112.647L177.024 113.78C176.413 114.642 176.053 115.657 175.985 116.711C175.963 116.911 175.987 117.113 176.054 117.302C176.121 117.491 176.23 117.663 176.373 117.804C176.516 117.945 176.689 118.052 176.88 118.116C177.07 118.181 177.272 118.202 177.471 118.177C178.417 118.177 179.914 117.137 182.045 114.934C182.278 114.745 182.427 114.473 182.461 114.175C182.461 113.78 182.253 113.718 182.128 113.718Z" fill="#FFFCF8"/>
<path d="M191.525 127.823H1.81958V95.0796H191.525V127.823ZM2.33932 127.304H191.006V95.5993H2.33932V127.304Z" fill="#FFFCF8"/>
</svg>
