<svg xmlns="http://www.w3.org/2000/svg" viewBox="0 0 930.21 173.95"><defs><style>.cls-1{fill:#de1e2f;}</style></defs><g id="Layer_2" data-name="Layer 2"><g id="Layer_2-2" data-name="Layer 2"><polygon class="cls-1" points="169.93 8.52 189.64 8.52 207.64 62.52 225.21 11.52 250.07 11.52 267.64 62.52 285.43 8.52 304.93 8.52 280.5 80.52 256.93 80.52 237.43 25.02 219.21 80.52 195.21 80.52 169.93 8.52"/><polygon class="cls-1" points="396 20.25 396 8.52 332.84 8.52 320.3 8.52 314.52 8.52 314.52 80.52 320.3 80.52 332.84 80.52 396 80.52 396 68.79 332.84 68.79 332.84 47.41 390.38 47.41 390.38 35.68 332.84 35.68 332.84 20.25 396 20.25"/><polygon class="cls-1" points="221.79 97.2 221.79 89.73 181.59 89.73 173.61 89.73 169.93 89.73 169.93 135.56 173.61 135.56 181.59 135.56 221.79 135.56 221.79 128.09 181.59 128.09 181.59 114.48 218.21 114.48 218.21 107.02 181.59 107.02 181.59 97.2 221.79 97.2"/><polygon class="cls-1" points="340.45 97.2 340.45 89.73 300.25 89.73 292.27 89.73 288.59 89.73 288.59 135.56 292.27 135.56 300.25 135.56 340.45 135.56 340.45 128.09 300.25 128.09 300.25 114.48 336.87 114.48 336.87 107.02 300.25 107.02 300.25 97.2 340.45 97.2"/><polygon class="cls-1" points="930.21 20.25 930.21 8.52 867.05 8.52 854.52 8.52 848.73 8.52 848.73 80.52 854.52 80.52 867.05 80.52 930.21 80.52 930.21 68.79 867.05 68.79 867.05 47.41 924.59 47.41 924.59 35.68 867.05 35.68 867.05 20.25 930.21 20.25"/><path class="cls-1" d="M483.67,35.36h-50.3a3.94,3.94,0,0,1-3.94-3.94V25.31a3.94,3.94,0,0,1,3.94-3.94h59.7V8.52H426.21a12.94,12.94,0,0,0-1.39.07c-.36,0-.71.1-1.06.16l-.27,0a14.44,14.44,0,0,0-2.46.69l-.36.13-.6.24c-5,2.1-9.12,6.47-9.12,11.53h.22a14.8,14.8,0,0,0-.22,2.5v7.79a15.91,15.91,0,0,0,15.91,15.91h48.49a3.94,3.94,0,0,1,3.94,3.94V63.72a3.94,3.94,0,0,1-3.94,3.94H411V80.52h74.41a12.72,12.72,0,0,0,3.92-.62A13.82,13.82,0,0,0,499,66.7v-16A15.35,15.35,0,0,0,483.67,35.36Z"/><path class="cls-1" d="M683.38,35.36h-50.3a4,4,0,0,1-3.94-3.94V25.31a4,4,0,0,1,3.94-3.94h59.71V8.52H625.93a13.26,13.26,0,0,0-1.4.07c-.36,0-.71.1-1.06.16l-.26,0a14.81,14.81,0,0,0-2.47.69l-.36.13-.59.24c-5,2.1-9.13,6.47-9.13,11.53h.22a15.91,15.91,0,0,0-.22,2.5v7.79a15.91,15.91,0,0,0,15.91,15.91h48.49A3.93,3.93,0,0,1,679,51.51V63.72a3.93,3.93,0,0,1-3.94,3.94h-64.4V80.52h74.41A12.78,12.78,0,0,0,689,79.9a13.82,13.82,0,0,0,9.73-13.2v-16A15.35,15.35,0,0,0,683.38,35.36Z"/><polygon class="cls-1" points="598.71 8.52 505.93 8.52 505.93 20.52 542.79 20.52 542.79 80.52 561.86 80.52 561.86 20.52 598.71 20.52 598.71 8.52"/><polygon class="cls-1" points="465 89.73 406.02 89.73 406.02 97.36 429.45 97.36 429.45 135.5 441.57 135.5 441.57 97.36 465 97.36 465 89.73"/><rect class="cls-1" x="712.5" y="8.52" width="19.29" height="72"/><path class="cls-1" d="M746.79,8.52v72h53.57a33.43,33.43,0,0,0,33.43-33.43V42A33.43,33.43,0,0,0,800.36,8.52Zm18.42,60.21V20.3h27.22a22.28,22.28,0,0,1,22.28,22.29v3.86a22.28,22.28,0,0,1-22.28,22.28Z"/><rect class="cls-1" x="534.75" y="89.73" width="12.32" height="46"/><polygon class="cls-1" points="241.93 127.88 241.93 89.73 230.57 89.73 230.57 135.56 238.29 135.56 241.93 135.56 281.68 135.56 281.68 127.88 241.93 127.88"/><polygon class="cls-1" points="692.04 127.88 692.04 89.73 680.68 89.73 680.68 135.56 688.39 135.56 692.04 135.56 731.79 135.56 731.79 127.88 692.04 127.88"/><polygon class="cls-1" points="775.77 127.88 775.77 89.73 764.41 89.73 764.41 135.56 772.13 135.56 775.77 135.56 815.52 135.56 815.52 127.88 775.77 127.88"/><polygon class="cls-1" points="834.54 127.88 834.54 89.73 823.18 89.73 823.18 135.56 830.89 135.56 834.54 135.56 874.29 135.56 874.29 127.88 834.54 127.88"/><path class="cls-1" d="M399.32,97.55V89.73H357.2a8.66,8.66,0,0,0-8.66,8.66v28.5a8.65,8.65,0,0,0,8.66,8.66h42.12v-7.82H364a3.36,3.36,0,0,1-3.36-3.35V100.91A3.37,3.37,0,0,1,364,97.55Z"/><path class="cls-1" d="M607.61,97.55V89.73H565.48a8.66,8.66,0,0,0-8.66,8.66v28.5a8.66,8.66,0,0,0,8.66,8.66h42.13v-7.82H572.29a3.35,3.35,0,0,1-3.36-3.35V100.91a3.36,3.36,0,0,1,3.36-3.36Z"/><path class="cls-1" d="M930.21,97.55V89.73H888.09a8.66,8.66,0,0,0-8.66,8.66v28.5a8.66,8.66,0,0,0,8.66,8.66h42.12v-7.82H894.89a3.35,3.35,0,0,1-3.35-3.35V100.91a3.36,3.36,0,0,1,3.35-3.36Z"/><path class="cls-1" d="M528,135.5l-18.33-18.23h6.44a9.54,9.54,0,0,0,9.53-9.54V99.27a9.54,9.54,0,0,0-9.53-9.54H470.89v46h12.22V117.27h11.78l18.32,18.23ZM483.11,97.77h27.64a3,3,0,0,1,3,3v5.46a3,3,0,0,1-3,3H483.11Z"/><path class="cls-1" d="M660.88,135.55h12.78l-23-46.19H635.88l-23,46.19h12.78l6.44-12.93h22.35Zm-25-20.48,7.41-14.89,7.42,14.89Z"/><path class="cls-1" d="M175.22,152.62h-3.66a5.94,5.94,0,0,1,6.18-5.44,5.81,5.81,0,0,1,4.13,1.56,4.93,4.93,0,0,1,1.67,3.72,4.34,4.34,0,0,1-.73,2.43,5.14,5.14,0,0,1-2.12,1.78,5.41,5.41,0,0,1,2.85,1.9,5.12,5.12,0,0,1,1,3.19,6.05,6.05,0,0,1-2,4.57,7.11,7.11,0,0,1-5.07,1.87,6.61,6.61,0,0,1-4.75-1.76,7,7,0,0,1-2-4.8h3.77a3.75,3.75,0,0,0,1.08,2.31,3.33,3.33,0,0,0,4.33-.1,2.88,2.88,0,0,0-.31-4.4,5.49,5.49,0,0,0-3.41-1v-3.26a6.09,6.09,0,0,0,2-.43,2.54,2.54,0,0,0,1.05-.88,2.09,2.09,0,0,0,.38-1.18,1.76,1.76,0,0,0-.58-1.36,2.08,2.08,0,0,0-1.49-.53,2.44,2.44,0,0,0-1.49.49A2.54,2.54,0,0,0,175.22,152.62Z"/><path class="cls-1" d="M210.9,147.18l3.25,1.62-3.5,6.8a5.84,5.84,0,0,1,4.32,1.82,6.24,6.24,0,0,1,1.79,4.54A6.28,6.28,0,0,1,206,166.32a6.1,6.1,0,0,1-1.81-4.32,6.78,6.78,0,0,1,.28-1.87,19.51,19.51,0,0,1,1.29-2.88Zm-.47,12a2.34,2.34,0,0,0-1.78.76,2.7,2.7,0,0,0-.73,1.93,2.74,2.74,0,0,0,.76,1.95,2.38,2.38,0,0,0,1.76.79,2.47,2.47,0,0,0,1.83-.78,2.9,2.9,0,0,0,0-3.89A2.5,2.5,0,0,0,210.43,159.21Z"/><path class="cls-1" d="M243.46,147.18a6.5,6.5,0,0,1,3.77,1.07,6.76,6.76,0,0,1,2.45,3.29,17.33,17.33,0,0,1,.87,6.16,17.54,17.54,0,0,1-.88,6.2,7,7,0,0,1-2.36,3.26,6.4,6.4,0,0,1-3.74,1,6.57,6.57,0,0,1-3.8-1,6.77,6.77,0,0,1-2.41-3.18,16.7,16.7,0,0,1-.87-6.08c0-3.68.56-6.34,1.7-8A6,6,0,0,1,243.46,147.18Zm.08,3.62a2.62,2.62,0,0,0-1.71.61,4.11,4.11,0,0,0-1.14,2.13,19,19,0,0,0-.39,4.43q0,3.79.9,5.24a2.67,2.67,0,0,0,2.34,1.45,2.45,2.45,0,0,0,2.2-1.37q1-1.66,1-5.55c0-2.64-.3-4.45-.89-5.45A2.63,2.63,0,0,0,243.54,150.8Z"/><path class="cls-1" d="M271,158.59h6.91v3.46H271Z"/><path class="cls-1" d="M299.26,147.68H312.4v2l-9,18.52-3.22-1.56,7.52-15.38h-8.4Z"/><path class="cls-1" d="M338.57,147.18l3.24,1.62-3.5,6.8a5.86,5.86,0,0,1,4.33,1.82,6.28,6.28,0,0,1,1.78,4.54,6.28,6.28,0,0,1-10.76,4.36,6.09,6.09,0,0,1-1.8-4.32,6.43,6.43,0,0,1,.28-1.87,18.18,18.18,0,0,1,1.28-2.88Zm-.48,12a2.34,2.34,0,0,0-1.78.76,2.93,2.93,0,0,0,0,3.88,2.38,2.38,0,0,0,1.76.79,2.47,2.47,0,0,0,1.83-.78,2.68,2.68,0,0,0,.76-2A2.7,2.7,0,0,0,340,160,2.5,2.5,0,0,0,338.09,159.21Z"/><path class="cls-1" d="M368.23,154.13h-3.71a7.33,7.33,0,0,1,2-5.1,7.24,7.24,0,0,1,8.06-1.09,6.16,6.16,0,0,1,3.07,5.17,8.69,8.69,0,0,1-1,3.84A20.48,20.48,0,0,1,373,161.8l-2.24,2.37h7.13v3.53H364v-1.83l6.2-6.31a18.24,18.24,0,0,0,3-3.65,5.36,5.36,0,0,0,.74-2.5,2.56,2.56,0,0,0-.76-1.91,2.71,2.71,0,0,0-2-.76,2.64,2.64,0,0,0-2,.91A3.85,3.85,0,0,0,368.23,154.13Z"/><path class="cls-1" d="M398.66,158.59h6.92v3.46h-6.92Z"/><path class="cls-1" d="M437.16,156.84a6.13,6.13,0,0,1,2.85,5.21,6.18,6.18,0,0,1-.87,3.2,5.54,5.54,0,0,1-2.32,2.21,8.22,8.22,0,0,1-3.71.74,8.84,8.84,0,0,1-3.86-.71,5.47,5.47,0,0,1-2.28-2.17,6.34,6.34,0,0,1-.86-3.27,6,6,0,0,1,.69-2.88,6.93,6.93,0,0,1,2.06-2.33,6.61,6.61,0,0,1-1.36-1.93,5.37,5.37,0,0,1-.45-2.17,5.52,5.52,0,0,1,.75-2.85,5.18,5.18,0,0,1,2.12-2,6.64,6.64,0,0,1,3.14-.71,6.41,6.41,0,0,1,3.09.72,5.37,5.37,0,0,1,2.11,2,5.65,5.65,0,0,1,.77,2.85,4.85,4.85,0,0,1-.41,2A7.39,7.39,0,0,1,437.16,156.84Zm-4.07,2a3.34,3.34,0,0,0-2.31.84,2.56,2.56,0,0,0-.94,2,2.71,2.71,0,0,0,.88,2,3.25,3.25,0,0,0,2.33.84,3.33,3.33,0,0,0,2.32-.79,2.58,2.58,0,0,0,.87-2,2.7,2.7,0,0,0-.9-2.07A3.17,3.17,0,0,0,433.09,158.88Zm-.15-8a2,2,0,0,0-1.54.62,2.14,2.14,0,0,0-.61,1.58,2.19,2.19,0,0,0,.64,1.61,2.1,2.1,0,0,0,1.58.65,2.16,2.16,0,0,0,1.59-.63,2.3,2.3,0,0,0,.61-1.66,2.09,2.09,0,0,0-.62-1.57A2.29,2.29,0,0,0,432.94,150.85Z"/><path class="cls-1" d="M462.8,147.68h9.38v3.52h-6.54l-.81,3.64a5.65,5.65,0,0,1,.66-.15,4.64,4.64,0,0,1,.63,0,6.1,6.1,0,0,1,4.53,1.85,6.57,6.57,0,0,1,1.8,4.76,6.71,6.71,0,0,1-2,4.93,6.55,6.55,0,0,1-4.85,2,6.69,6.69,0,0,1-6.8-5.44h4a3.42,3.42,0,0,0,1.22,1.42,3,3,0,0,0,1.66.48,2.89,2.89,0,0,0,2.16-.91,3.57,3.57,0,0,0,.06-4.62,2.64,2.64,0,0,0-2-.89,2.61,2.61,0,0,0-1.23.31,4.5,4.5,0,0,0-1.19.94l-3.1-.69Z"/><path class="cls-1" d="M492.71,147.68h13.13v2l-9,18.52-3.22-1.56,7.52-15.38h-8.4Z"/><path class="cls-1" d="M528.58,147.68H538v3.52h-6.53l-.82,3.64a5.8,5.8,0,0,1,.67-.15,4.49,4.49,0,0,1,.62,0,6.07,6.07,0,0,1,4.53,1.85,6.57,6.57,0,0,1,1.8,4.76,6.7,6.7,0,0,1-2,4.93,6.58,6.58,0,0,1-4.85,2,6.69,6.69,0,0,1-6.81-5.44h4a3.5,3.5,0,0,0,1.22,1.42,3,3,0,0,0,1.67.48,2.88,2.88,0,0,0,2.15-.91,3.57,3.57,0,0,0,.06-4.62,2.62,2.62,0,0,0-2-.89,2.68,2.68,0,0,0-1.24.31,4.5,4.5,0,0,0-1.19.94l-3.1-.69Z"/><polygon class="cls-1" points="118.77 0 30 89.73 56.57 80.52 15.43 128.09 34.71 123.8 0 173.95 87.43 83.95 59.79 95.14 103.34 46.29 82.61 52.07 118.77 0"/></g></g></svg>