<svg xmlns="http://www.w3.org/2000/svg" viewBox="0 0 926.02 160.2"><defs><style>.cls-1{fill:#fff;}.cls-2{fill:#de1e2f;}</style></defs><g id="Layer_2" data-name="Layer 2"><g id="Layer_2-2" data-name="Layer 2"><polygon class="cls-1" points="165.73 0.51 185.45 0.51 203.45 54.51 221.02 3.51 245.88 3.51 263.45 54.51 281.23 0.51 300.73 0.51 276.3 72.51 252.73 72.51 233.23 17.01 215.02 72.51 191.02 72.51 165.73 0.51"/><polygon class="cls-1" points="391.8 12.25 391.8 0.51 328.64 0.51 316.11 0.51 310.32 0.51 310.32 72.51 316.11 72.51 328.64 72.51 391.8 72.51 391.8 60.78 328.64 60.78 328.64 39.41 386.18 39.41 386.18 27.67 328.64 27.67 328.64 12.25 391.8 12.25"/><polygon class="cls-1" points="217.59 89.19 217.59 81.73 177.39 81.73 169.41 81.73 165.73 81.73 165.73 127.55 169.41 127.55 177.39 127.55 217.59 127.55 217.59 120.08 177.39 120.08 177.39 106.48 214.01 106.48 214.01 99.01 177.39 99.01 177.39 89.19 217.59 89.19"/><polygon class="cls-1" points="336.25 89.19 336.25 81.73 296.05 81.73 288.07 81.73 284.39 81.73 284.39 127.55 288.07 127.55 296.05 127.55 336.25 127.55 336.25 120.08 296.05 120.08 296.05 106.48 332.67 106.48 332.67 99.01 296.05 99.01 296.05 89.19 336.25 89.19"/><polygon class="cls-1" points="926.02 12.25 926.02 0.51 862.86 0.51 850.32 0.51 844.54 0.51 844.54 72.51 850.32 72.51 862.86 72.51 926.02 72.51 926.02 60.78 862.86 60.78 862.86 39.41 920.39 39.41 920.39 27.67 862.86 27.67 862.86 12.25 926.02 12.25"/><path class="cls-1" d="M479.47,27.35h-50.3a3.94,3.94,0,0,1-3.94-3.93V17.31a3.94,3.94,0,0,1,3.94-3.94h59.71V.51H422a13.29,13.29,0,0,0-1.4.08c-.36,0-.71.09-1.06.15l-.26,0a15.51,15.51,0,0,0-2.47.68l-.36.13-.59.25c-5,2.09-9.13,6.46-9.13,11.53H407a15.68,15.68,0,0,0-.22,2.49v7.8a15.91,15.91,0,0,0,15.91,15.91h48.49a3.93,3.93,0,0,1,3.94,3.93V55.72a3.94,3.94,0,0,1-3.94,3.94h-64.4V72.51h74.41a12.77,12.77,0,0,0,3.93-.61,13.84,13.84,0,0,0,9.73-13.21v-16A15.35,15.35,0,0,0,479.47,27.35Z"/><path class="cls-1" d="M679.19,27.35H628.88A3.93,3.93,0,0,1,625,23.42V17.31a3.93,3.93,0,0,1,3.93-3.94h59.71V.51H621.73a13.29,13.29,0,0,0-1.4.08c-.36,0-.71.09-1.06.15l-.26,0a15.81,15.81,0,0,0-2.47.68l-.36.13-.59.25c-5,2.09-9.13,6.46-9.13,11.53h.22a15.68,15.68,0,0,0-.22,2.49v7.8a15.92,15.92,0,0,0,15.92,15.91h48.49a3.93,3.93,0,0,1,3.93,3.93V55.72a3.94,3.94,0,0,1-3.93,3.94H606.46V72.51h74.42a12.76,12.76,0,0,0,3.92-.61,13.83,13.83,0,0,0,9.74-13.21v-16A15.35,15.35,0,0,0,679.19,27.35Z"/><polygon class="cls-1" points="594.52 0.51 501.73 0.51 501.73 12.51 538.59 12.51 538.59 72.51 557.66 72.51 557.66 12.51 594.52 12.51 594.52 0.51"/><polygon class="cls-1" points="460.8 81.73 401.82 81.73 401.82 89.36 425.25 89.36 425.25 127.5 437.37 127.5 437.37 89.36 460.8 89.36 460.8 81.73"/><rect class="cls-1" x="708.3" y="0.51" width="19.29" height="72"/><path class="cls-1" d="M742.59.51v72h53.57a33.43,33.43,0,0,0,33.43-33.43V33.94A33.43,33.43,0,0,0,796.16.51ZM761,60.73V12.3h27.21a22.29,22.29,0,0,1,22.29,22.28v3.86a22.29,22.29,0,0,1-22.29,22.29Z"/><rect class="cls-1" x="530.55" y="81.73" width="12.32" height="46"/><polygon class="cls-1" points="237.73 119.87 237.73 81.73 226.38 81.73 226.38 127.55 234.09 127.55 237.73 127.55 277.48 127.55 277.48 119.87 237.73 119.87"/><polygon class="cls-1" points="687.84 119.87 687.84 81.73 676.48 81.73 676.48 127.55 684.2 127.55 687.84 127.55 727.59 127.55 727.59 119.87 687.84 119.87"/><polygon class="cls-1" points="771.57 119.87 771.57 81.73 760.21 81.73 760.21 127.55 767.93 127.55 771.57 127.55 811.32 127.55 811.32 119.87 771.57 119.87"/><polygon class="cls-1" points="830.34 119.87 830.34 81.73 818.98 81.73 818.98 127.55 826.7 127.55 830.34 127.55 870.09 127.55 870.09 119.87 830.34 119.87"/><path class="cls-1" d="M395.13,89.55V81.73H353a8.66,8.66,0,0,0-8.66,8.66v28.5a8.66,8.66,0,0,0,8.66,8.66h42.13v-7.82H359.8a3.35,3.35,0,0,1-3.35-3.36V92.91a3.35,3.35,0,0,1,3.35-3.36Z"/><path class="cls-1" d="M603.41,89.55V81.73H561.29a8.66,8.66,0,0,0-8.66,8.66v28.5a8.66,8.66,0,0,0,8.66,8.66h42.12v-7.82H568.09a3.36,3.36,0,0,1-3.36-3.36V92.91a3.36,3.36,0,0,1,3.36-3.36Z"/><path class="cls-1" d="M926,89.55V81.73H883.89a8.66,8.66,0,0,0-8.66,8.66v28.5a8.66,8.66,0,0,0,8.66,8.66H926v-7.82H890.7a3.35,3.35,0,0,1-3.36-3.36V92.91a3.35,3.35,0,0,1,3.36-3.36Z"/><path class="cls-1" d="M523.8,127.5l-18.32-18.24h6.43a9.54,9.54,0,0,0,9.54-9.53V91.26a9.54,9.54,0,0,0-9.54-9.53H466.7v46h12.21V109.26h11.78L509,127.5ZM478.91,89.76h27.64a3,3,0,0,1,3,3v5.47a3,3,0,0,1-3,3H478.91Z"/><path class="cls-1" d="M656.69,127.55h12.77l-23-46.2H631.69l-23,46.2h12.77l6.44-12.93h22.35Zm-25-20.48,7.42-14.89,7.41,14.89Z"/><path class="cls-1" d="M171,144.61h-3.67a6,6,0,0,1,6.18-5.44,5.76,5.76,0,0,1,4.13,1.57,4.89,4.89,0,0,1,1.67,3.71,4.32,4.32,0,0,1-.73,2.44,5.19,5.19,0,0,1-2.11,1.78,5.44,5.44,0,0,1,2.85,1.9,5.14,5.14,0,0,1,1,3.19,6.06,6.06,0,0,1-2,4.57,7.12,7.12,0,0,1-5.06,1.87,6.58,6.58,0,0,1-4.75-1.76,6.94,6.94,0,0,1-2-4.8h3.77a3.86,3.86,0,0,0,1.08,2.3,3.3,3.3,0,0,0,4.33-.1,2.8,2.8,0,0,0,.88-2.09,2.85,2.85,0,0,0-1.18-2.3,5.5,5.5,0,0,0-3.42-1v-3.27a5.92,5.92,0,0,0,2-.43,2.52,2.52,0,0,0,1.05-.87,2.19,2.19,0,0,0,.37-1.19,1.78,1.78,0,0,0-.57-1.35,2.09,2.09,0,0,0-1.5-.54,2.54,2.54,0,0,0-2.39,1.78Z"/><path class="cls-1" d="M206.71,139.17l3.24,1.62-3.5,6.8a5.82,5.82,0,0,1,4.33,1.83,6.21,6.21,0,0,1,1.78,4.53A6.28,6.28,0,0,1,200,154a6.31,6.31,0,0,1,.28-1.86,18.18,18.18,0,0,1,1.28-2.89Zm-.48,12a2.35,2.35,0,0,0-1.78.77,2.91,2.91,0,0,0,0,3.87,2.37,2.37,0,0,0,1.77.79,2.5,2.5,0,0,0,1.82-.77,2.9,2.9,0,0,0,0-3.89A2.49,2.49,0,0,0,206.23,151.2Z"/><path class="cls-1" d="M239.26,139.17a6.56,6.56,0,0,1,3.78,1.08,6.85,6.85,0,0,1,2.45,3.28,17.67,17.67,0,0,1,.86,6.16,17.34,17.34,0,0,1-.88,6.21,7,7,0,0,1-2.36,3.26,6.4,6.4,0,0,1-3.74,1,6.59,6.59,0,0,1-3.8-1,6.86,6.86,0,0,1-2.41-3.19,16.7,16.7,0,0,1-.87-6.08c0-3.67.57-6.34,1.7-8A6.07,6.07,0,0,1,239.26,139.17Zm.09,3.62a2.61,2.61,0,0,0-1.71.62,4,4,0,0,0-1.14,2.13,18.25,18.25,0,0,0-.4,4.42q0,3.79.91,5.25a2.67,2.67,0,0,0,2.34,1.45,2.48,2.48,0,0,0,2.2-1.38q1-1.65,1-5.55t-.89-5.44A2.63,2.63,0,0,0,239.35,142.79Z"/><path class="cls-1" d="M266.8,150.59h6.92v3.46H266.8Z"/><path class="cls-1" d="M295.07,139.67H308.2v2l-9,18.53L296,158.64l7.52-15.39h-8.4Z"/><path class="cls-1" d="M334.37,139.17l3.25,1.62-3.51,6.8a5.82,5.82,0,0,1,4.33,1.83,6.21,6.21,0,0,1,1.78,4.53,6.28,6.28,0,0,1-12.56,0,6.31,6.31,0,0,1,.28-1.86,18.48,18.48,0,0,1,1.29-2.89Zm-.48,12a2.36,2.36,0,0,0-1.78.77,2.91,2.91,0,0,0,0,3.87,2.38,2.38,0,0,0,1.77.79,2.5,2.5,0,0,0,1.82-.77,2.68,2.68,0,0,0,.76-2,2.63,2.63,0,0,0-.74-1.93A2.47,2.47,0,0,0,333.89,151.2Z"/><path class="cls-1" d="M364,146.12h-3.72a7.33,7.33,0,0,1,2-5.09,7.17,7.17,0,0,1,8.05-1.09,5.76,5.76,0,0,1,2.24,2.22,5.88,5.88,0,0,1,.83,2.94,8.8,8.8,0,0,1-1,3.84,21.27,21.27,0,0,1-3.71,4.86l-2.25,2.37h7.14v3.52H359.78v-1.82l6.19-6.31a18.36,18.36,0,0,0,3-3.66,5.41,5.41,0,0,0,.74-2.5,2.57,2.57,0,0,0-.77-1.91,2.71,2.71,0,0,0-2-.75,2.6,2.6,0,0,0-2,.91A3.71,3.71,0,0,0,364,146.12Z"/><path class="cls-1" d="M394.47,150.59h6.91v3.46h-6.91Z"/><path class="cls-1" d="M433,148.84a6.07,6.07,0,0,1,2.85,5.2,6.24,6.24,0,0,1-.86,3.2,5.65,5.65,0,0,1-2.33,2.22,8.19,8.19,0,0,1-3.71.74,8.61,8.61,0,0,1-3.85-.72,5.47,5.47,0,0,1-2.29-2.16,6.35,6.35,0,0,1-.86-3.28,6.07,6.07,0,0,1,.69-2.88,7,7,0,0,1,2.06-2.32,6.43,6.43,0,0,1-1.35-1.94,5.19,5.19,0,0,1-.46-2.17,5.48,5.48,0,0,1,.76-2.85,5.28,5.28,0,0,1,2.11-2,6.77,6.77,0,0,1,3.15-.71,6.41,6.41,0,0,1,3.09.72,5.24,5.24,0,0,1,2.1,2.05,5.59,5.59,0,0,1,.77,2.85,4.88,4.88,0,0,1-.4,2A7.83,7.83,0,0,1,433,148.84Zm-4.06,2a3.36,3.36,0,0,0-2.32.84,2.61,2.61,0,0,0-.94,2,2.7,2.7,0,0,0,.89,2,3.23,3.23,0,0,0,2.32.84,3.35,3.35,0,0,0,2.33-.78,2.62,2.62,0,0,0,.86-2,2.73,2.73,0,0,0-.9-2.08A3.16,3.16,0,0,0,428.9,150.87Zm-.15-8a2.08,2.08,0,0,0-1.55.62,2.17,2.17,0,0,0-.6,1.58,2.24,2.24,0,0,0,.63,1.62,2.16,2.16,0,0,0,1.58.65,2.09,2.09,0,0,0,1.59-.64A2.28,2.28,0,0,0,431,145a2.06,2.06,0,0,0-.63-1.57A2.26,2.26,0,0,0,428.75,142.84Z"/><path class="cls-1" d="M458.6,139.67H468v3.53h-6.53l-.82,3.63a5.72,5.72,0,0,1,.67-.14,4.56,4.56,0,0,1,.62-.05,6,6,0,0,1,4.53,1.86,6.55,6.55,0,0,1,1.8,4.76,6.72,6.72,0,0,1-2,4.93,6.58,6.58,0,0,1-4.85,2,6.71,6.71,0,0,1-6.81-5.45h4a3.53,3.53,0,0,0,1.22,1.43,3,3,0,0,0,1.67.48,2.88,2.88,0,0,0,2.15-.91,3.57,3.57,0,0,0,.06-4.62,2.59,2.59,0,0,0-2-.89,2.68,2.68,0,0,0-1.24.31,4.5,4.5,0,0,0-1.19.94l-3.1-.7Z"/><path class="cls-1" d="M488.51,139.67h13.14v2l-9,18.53-3.22-1.56,7.52-15.39h-8.4Z"/><path class="cls-1" d="M524.39,139.67h9.37v3.53h-6.53l-.82,3.63a5.72,5.72,0,0,1,.67-.14,4.7,4.7,0,0,1,.63-.05,6,6,0,0,1,4.52,1.86,6.52,6.52,0,0,1,1.81,4.76,6.73,6.73,0,0,1-2,4.93,6.57,6.57,0,0,1-4.85,2,6.69,6.69,0,0,1-6.8-5.45h4a3.38,3.38,0,0,0,1.22,1.43,3,3,0,0,0,1.66.48,2.86,2.86,0,0,0,2.15-.91,3.53,3.53,0,0,0,.06-4.62,2.64,2.64,0,0,0-3.22-.58,4.35,4.35,0,0,0-1.19.94l-3.11-.7Z"/><path class="cls-2" d="M4,155.94a2,2,0,0,1-1.27-.46,2,2,0,0,1-.37-2.68l27-39-11.64,2.58a2.1,2.1,0,0,1-.43,0,2,2,0,0,1-1.51-3.31L46.37,77.74l-15.86,5.5a2.06,2.06,0,0,1-.65.11,2,2,0,0,1-1.42-3.41L105,2.59A2,2,0,0,1,106.38,2a2,2,0,0,1,1.27.46A2,2,0,0,1,108,5.14L80,45.47,92.54,42a2,2,0,0,1,2,3.26L62.74,80.94l15.87-6.43a2,2,0,0,1,2.19,3.24L5.43,155.33A2,2,0,0,1,4,155.94Z"/><path class="cls-1" d="M106.38,4h0m0,0L75.21,48.88l17.87-5L55.53,86l23.83-9.65L4,153.94l29.92-43.22L17.3,114.41l35.46-41-22.9,7.95L106.38,4m0-4h-.06a4,4,0,0,0-2.79,1.19L27,78.53a4,4,0,0,0,4.15,6.6L40,82.07,14.27,111.79a4,4,0,0,0,3,6.62,3.69,3.69,0,0,0,.87-.1l6.65-1.47L.71,151.66a4,4,0,0,0,6.16,5.06L82.23,79.15a4,4,0,0,0-4.37-6.5l-7.92,3.21,26.12-29.3A4,4,0,0,0,92,40l-7.18,2L109.6,6.37A4,4,0,0,0,110.38,4a4,4,0,0,0-4-4Zm0,8Z"/></g></g></svg>