<svg xmlns="http://www.w3.org/2000/svg" viewBox="0 0 135 68.43"><defs><style>.cls-1{fill:#f2f2f2;}</style></defs><g id="Layer_2" data-name="Layer 2"><g id="Layer_1-2" data-name="Layer 1"><path class="cls-1" d="M67.5,68.43a34.22,34.22,0,1,1,34.21-34.22A34.26,34.26,0,0,1,67.5,68.43ZM67.5,5A29.22,29.22,0,1,0,96.71,34.21,29.25,29.25,0,0,0,67.5,5Z"/><rect class="cls-1" x="99.21" y="31.71" width="35.79" height="5"/><rect class="cls-1" y="31.71" width="35.78" height="5"/><path class="cls-1" d="M65.08,49.81,55.4,20.15h4.14l4.62,14.61c1.27,4,2.37,7.62,3.17,11.09h.08c.84-3.43,2.07-7.17,3.39-11l5-14.66h4.09L69.31,49.81Z"/></g></g></svg>