<svg xmlns="http://www.w3.org/2000/svg" viewBox="0 0 135 91.47"><defs><style>.cls-1{fill:#E30126;}</style></defs><g id="Layer_2" data-name="Layer 2"><g id="Layer_1-2" data-name="Layer 1"><path class="cls-1" d="M67.5,91.47a34.22,34.22,0,1,1,34.21-34.22A34.26,34.26,0,0,1,67.5,91.47ZM67.5,28A29.22,29.22,0,1,0,96.71,57.25,29.25,29.25,0,0,0,67.5,28Z"/><rect class="cls-1" x="99.21" y="54.75" width="35.79" height="5"/><rect class="cls-1" y="54.75" width="35.78" height="5"/><path class="cls-1" d="M49.2,79.15V35.78L78.39,57.46Zm5-33.43V69.21L70,57.46Z"/><rect class="cls-1" x="78.7" y="35.39" width="5" height="44.14"/><rect class="cls-1" x="35.78" y="54.96" width="64.35" height="5"/><rect class="cls-1" x="85.41" y="13.69" width="19.73" height="5" transform="translate(13.38 67.49) rotate(-41.71)"/><polygon class="cls-1" points="106.09 14.44 112.25 0 98.12 5.53 106.09 14.44"/><rect class="cls-1" x="97.19" y="25.46" width="19.73" height="5" transform="translate(8.53 78.31) rotate(-41.71)"/><polygon class="cls-1" points="117.86 26.22 124.03 11.77 109.89 17.3 117.86 26.22"/></g></g></svg>