<svg xmlns="http://www.w3.org/2000/svg" viewBox="0 0 135 68.43"><defs><style>.cls-1{fill:#E30126;}</style></defs><g id="Layer_2" data-name="Layer 2"><g id="Layer_1-2" data-name="Layer 1"><path class="cls-1" d="M67.5,68.43a34.22,34.22,0,1,1,34.21-34.22A34.26,34.26,0,0,1,67.5,68.43ZM67.5,5A29.22,29.22,0,1,0,96.71,34.21,29.25,29.25,0,0,0,67.5,5Z"/><rect class="cls-1" x="99.21" y="31.71" width="35.79" height="5"/><rect class="cls-1" y="31.71" width="35.78" height="5"/><path class="cls-1" d="M62.18,38.48,59.1,47.81h-4L65.21,18.15h4.62L80,47.81h-4.1l-3.17-9.33Zm9.72-3L69,27c-.66-1.94-1.1-3.7-1.54-5.42h-.09c-.44,1.76-.92,3.57-1.5,5.37L63,35.49Z"/></g></g></svg>