<svg xmlns="http://www.w3.org/2000/svg" viewBox="0 0 135 68.43"><defs><style>.cls-1{fill:#f2f2f2;}</style></defs><g id="Layer_2" data-name="Layer 2"><g id="Layer_1-2" data-name="Layer 1"><path class="cls-1" d="M67.5,68.43a34.22,34.22,0,1,1,34.21-34.22A34.26,34.26,0,0,1,67.5,68.43ZM67.5,5A29.22,29.22,0,1,0,96.71,34.21,29.25,29.25,0,0,0,67.5,5Z"/><rect class="cls-1" x="99.21" y="31.71" width="35.79" height="5"/><rect class="cls-1" y="31.71" width="35.78" height="5"/><path class="cls-1" d="M78.15,34.79c-.22-4.14-.48-9.11-.44-12.81h-.13c-1,3.48-2.24,7.18-3.74,11.27L68.6,47.64H65.7L60.9,33.51c-1.4-4.18-2.59-8-3.43-11.53h-.09c-.09,3.7-.31,8.67-.57,13.12L56,47.81H52.37l2.06-29.66h4.89L64.38,32.5c1.23,3.65,2.24,6.91,3,10h.13c.75-3,1.81-6.25,3.13-10l5.28-14.35h4.88l1.85,29.66H78.9Z"/></g></g></svg>