<svg xmlns="http://www.w3.org/2000/svg" viewBox="0 0 135 91.47"><defs><style>.cls-1{fill:#231f20}</style></defs><g id="Layer_2" data-name="Layer 2"><g id="Layer_1-2" data-name="Layer 1"><path class="cls-1" d="M67.5 91.47a34.22 34.22 0 1134.21-34.22A34.26 34.26 0 0167.5 91.47zm0-63.47a29.22 29.22 0 1029.21 29.25A29.25 29.25 0 0067.5 28z"/><path class="cls-1" d="M99.21 54.75H135v5H99.21zM0 54.75h35.78v5H0zM49.2 79.15V35.78l29.19 21.68zm5-33.43v23.49L70 57.46zM78.7 35.39h5v44.14h-5z"/><path class="cls-1" d="M35.78 54.96h64.35v5H35.78z"/><path class="cls-1" transform="rotate(-41.71 95.268 16.184)" d="M85.41 13.69h19.73v5H85.41z"/><path class="cls-1" d="M106.09 14.44L112.25 0 98.12 5.53l7.97 8.91z"/><path class="cls-1" transform="rotate(-41.71 107.044 27.96)" d="M97.19 25.46h19.73v5H97.19z"/><path class="cls-1" d="M117.86 26.22l6.17-14.45-14.14 5.53 7.97 8.92z"/></g></g></svg>