<svg xmlns="http://www.w3.org/2000/svg" viewBox="0 0 565.31 462.86"><defs><style>.cls-1{fill:#eb4d67}.cls-2{fill:#e30126}.cls-3{fill:#b6011e}.cls-4{fill:#f18093}.cls-5{fill:#f9ccd4}</style></defs><g id="Layer_2" data-name="Layer 2"><g id="Layer_2-2" data-name="Layer 2"><path class="cls-1" d="M0 0h53.84L26.92 46.29 0 0z"/><path class="cls-2" d="M53.84 0h53.84L80.76 46.29 53.84 0z"/><path class="cls-1" d="M107.68 0h53.84L134.6 46.29 107.68 0z"/><path class="cls-3" d="M215.36 0h53.84l-26.92 46.29L215.36 0z"/><path class="cls-1" d="M269.2 0h53.84l-26.92 46.29L269.2 0z"/><path class="cls-4" d="M376.88 0h53.83L403.8 46.29 376.88 0z"/><path class="cls-1" d="M188.44 46.29h53.84L215.36 0l-26.92 46.29z"/><path class="cls-5" d="M457.63 46.29h53.84L484.55 0l-26.92 46.29z"/><path class="cls-1" d="M0 92.57h53.84L26.92 46.29 0 92.57z"/><path class="cls-2" d="M107.68 92.57h53.84L134.6 46.29l-26.92 46.28z"/><path class="cls-2" d="M161.52 92.57h53.84l-26.92-46.28-26.92 46.28z"/><path class="cls-4" d="M323.04 92.57h53.84l-26.92-46.28-26.92 46.28z"/><path class="cls-5" d="M430.71 92.57h53.84l-26.92-46.28-26.92 46.28z"/><path class="cls-4" d="M26.92 46.29L0 92.57V46.29h26.92z"/><path class="cls-2" d="M26.92 46.29h53.84L53.84 92.57 26.92 46.29z"/><path class="cls-3" d="M80.76 46.29h53.84l-26.92 46.28-26.92-46.28z"/><path class="cls-1" d="M134.6 46.29h53.84l-26.92 46.28-26.92-46.28z"/><path class="cls-3" d="M188.44 46.29h53.84l-26.92 46.28-26.92-46.28z"/><path class="cls-2" d="M242.28 46.29h53.84L269.2 92.57l-26.92-46.28z"/><path fill="#f7b3be" d="M349.96 46.29h53.84l-26.92 46.28-26.92-46.28z"/><path class="cls-5" d="M511.47 46.29h53.84l-26.92 46.28-26.92-46.28z"/><path class="cls-4" d="M0 92.57h53.84l-26.92 46.29L0 92.57z"/><path class="cls-1" d="M107.68 92.57h53.84l-26.92 46.29-26.92-46.29z"/><path class="cls-1" d="M161.52 92.57h53.84l-26.92 46.29-26.92-46.29z"/><path class="cls-4" d="M269.2 92.57h53.84l-26.92 46.29-26.92-46.29z"/><path class="cls-1" d="M26.92 138.86h53.84L53.84 92.57l-26.92 46.29z"/><path class="cls-4" d="M134.6 138.86h53.84l-26.92-46.29-26.92 46.29z"/><path class="cls-3" d="M0 185.14h53.84l-26.92-46.28L0 185.14z"/><path class="cls-2" d="M26.92 138.86L0 185.14v-46.28h26.92zM26.92 138.86h53.84l-26.92 46.28-26.92-46.28zM134.6 138.86h53.84l-26.92 46.28-26.92-46.28z"/><path class="cls-4" d="M188.44 138.86h53.84l-26.92 46.28-26.92-46.28z"/><path class="cls-2" d="M242.28 138.86h53.84l-26.92 46.28-26.92-46.28z"/><path class="cls-4" d="M403.8 138.86h53.83l-26.92 46.28-26.91-46.28z"/><path class="cls-1" d="M0 185.14h53.84l-26.92 46.29L0 185.14z"/><path class="cls-3" d="M107.68 185.14h53.84l-26.92 46.29-26.92-46.29z"/><path class="cls-4" d="M269.2 185.14h53.84l-26.92 46.29-26.92-46.29z"/><path class="cls-2" d="M80.76 231.43h53.84l-26.92-46.29-26.92 46.29z"/><path class="cls-4" d="M0 277.71h53.84l-26.92-46.28L0 277.71z"/><path class="cls-5" d="M53.84 277.71h53.84l-26.92-46.28-26.92 46.28z"/><path class="cls-1" d="M26.92 231.43L0 277.71v-46.28h26.92z"/><path class="cls-4" d="M26.92 231.43h53.84l-26.92 46.28-26.92-46.28z"/><path class="cls-2" d="M134.6 231.43h53.84l-26.92 46.28-26.92-46.28z"/><path class="cls-3" d="M0 277.71h53.84L26.92 324 0 277.71z"/><path class="cls-4" d="M53.84 277.71h53.84L80.76 324l-26.92-46.29z"/><path class="cls-5" d="M215.36 277.71h53.84L242.28 324l-26.92-46.29z"/><path class="cls-2" d="M26.92 324h53.84l-26.92-46.29L26.92 324z"/><path class="cls-1" d="M0 370.29h53.84l-26.92 46.28L0 370.29z"/><path class="cls-4" d="M134.6 416.57h53.84l-26.92-46.28-26.92 46.28z"/><path class="cls-5" d="M26.92 416.57h53.84l-26.92 46.29-26.92-46.29z"/></g></g></svg>