<svg xmlns="http://www.w3.org/2000/svg" viewBox="0 0 565.31 462.86"><defs><style>.cls-1{fill:#eb4d67;}.cls-2{fill:#E30126;}.cls-3{fill:#b6011e;}.cls-4{fill:#f18093;}.cls-5{fill:#f9ccd4;}.cls-6{fill:#f7b3be;}</style></defs><g id="Layer_2" data-name="Layer 2"><g id="Layer_2-2" data-name="Layer 2"><polygon class="cls-1" points="0 0 53.84 0 26.92 46.29 0 0"/><polygon class="cls-2" points="53.84 0 107.68 0 80.76 46.29 53.84 0"/><polygon class="cls-1" points="107.68 0 161.52 0 134.6 46.29 107.68 0"/><polygon class="cls-3" points="215.36 0 269.2 0 242.28 46.29 215.36 0"/><polygon class="cls-1" points="269.2 0 323.04 0 296.12 46.29 269.2 0"/><polygon class="cls-4" points="376.88 0 430.71 0 403.8 46.29 376.88 0"/><polygon class="cls-1" points="188.44 46.29 242.28 46.29 215.36 0 188.44 46.29"/><polygon class="cls-5" points="457.63 46.29 511.47 46.29 484.55 0 457.63 46.29"/><polygon class="cls-1" points="0 92.57 53.84 92.57 26.92 46.29 0 92.57"/><polygon class="cls-2" points="107.68 92.57 161.52 92.57 134.6 46.29 107.68 92.57"/><polygon class="cls-2" points="161.52 92.57 215.36 92.57 188.44 46.29 161.52 92.57"/><polygon class="cls-4" points="323.04 92.57 376.88 92.57 349.96 46.29 323.04 92.57"/><polygon class="cls-5" points="430.71 92.57 484.55 92.57 457.63 46.29 430.71 92.57"/><polygon class="cls-4" points="26.92 46.29 0 92.57 0 46.29 26.92 46.29"/><polygon class="cls-2" points="26.92 46.29 80.76 46.29 53.84 92.57 26.92 46.29"/><polygon class="cls-3" points="80.76 46.29 134.6 46.29 107.68 92.57 80.76 46.29"/><polygon class="cls-1" points="134.6 46.29 188.44 46.29 161.52 92.57 134.6 46.29"/><polygon class="cls-3" points="188.44 46.29 242.28 46.29 215.36 92.57 188.44 46.29"/><polygon class="cls-2" points="242.28 46.29 296.12 46.29 269.2 92.57 242.28 46.29"/><polygon class="cls-6" points="349.96 46.29 403.8 46.29 376.88 92.57 349.96 46.29"/><polygon class="cls-5" points="511.47 46.29 565.31 46.29 538.39 92.57 511.47 46.29"/><polygon class="cls-4" points="0 92.57 53.84 92.57 26.92 138.86 0 92.57"/><polygon class="cls-1" points="107.68 92.57 161.52 92.57 134.6 138.86 107.68 92.57"/><polygon class="cls-1" points="161.52 92.57 215.36 92.57 188.44 138.86 161.52 92.57"/><polygon class="cls-4" points="269.2 92.57 323.04 92.57 296.12 138.86 269.2 92.57"/><polygon class="cls-1" points="26.92 138.86 80.76 138.86 53.84 92.57 26.92 138.86"/><polygon class="cls-4" points="134.6 138.86 188.44 138.86 161.52 92.57 134.6 138.86"/><polygon class="cls-3" points="0 185.14 53.84 185.14 26.92 138.86 0 185.14"/><polygon class="cls-2" points="26.92 138.86 0 185.14 0 138.86 26.92 138.86"/><polygon class="cls-2" points="26.92 138.86 80.76 138.86 53.84 185.14 26.92 138.86"/><polygon class="cls-2" points="134.6 138.86 188.44 138.86 161.52 185.14 134.6 138.86"/><polygon class="cls-4" points="188.44 138.86 242.28 138.86 215.36 185.14 188.44 138.86"/><polygon class="cls-2" points="242.28 138.86 296.12 138.86 269.2 185.14 242.28 138.86"/><polygon class="cls-4" points="403.8 138.86 457.63 138.86 430.71 185.14 403.8 138.86"/><polygon class="cls-1" points="0 185.14 53.84 185.14 26.92 231.43 0 185.14"/><polygon class="cls-3" points="107.68 185.14 161.52 185.14 134.6 231.43 107.68 185.14"/><polygon class="cls-4" points="269.2 185.14 323.04 185.14 296.12 231.43 269.2 185.14"/><polygon class="cls-2" points="80.76 231.43 134.6 231.43 107.68 185.14 80.76 231.43"/><polygon class="cls-4" points="0 277.71 53.84 277.71 26.92 231.43 0 277.71"/><polygon class="cls-5" points="53.84 277.71 107.68 277.71 80.76 231.43 53.84 277.71"/><polygon class="cls-1" points="26.92 231.43 0 277.71 0 231.43 26.92 231.43"/><polygon class="cls-4" points="26.92 231.43 80.76 231.43 53.84 277.71 26.92 231.43"/><polygon class="cls-2" points="134.6 231.43 188.44 231.43 161.52 277.71 134.6 231.43"/><polygon class="cls-3" points="0 277.71 53.84 277.71 26.92 324 0 277.71"/><polygon class="cls-4" points="53.84 277.71 107.68 277.71 80.76 324 53.84 277.71"/><polygon class="cls-5" points="215.36 277.71 269.2 277.71 242.28 324 215.36 277.71"/><polygon class="cls-2" points="26.92 324 80.76 324 53.84 277.71 26.92 324"/><polygon class="cls-1" points="0 370.29 53.84 370.29 26.92 416.57 0 370.29"/><polygon class="cls-4" points="134.6 416.57 188.44 416.57 161.52 370.29 134.6 416.57"/><polygon class="cls-5" points="26.92 416.57 80.76 416.57 53.84 462.86 26.92 416.57"/></g></g></svg>