<svg id="Layer_2" data-name="Layer 2" xmlns="http://www.w3.org/2000/svg" viewBox="0 0 1000 244.77"><defs><style>.cls-1{fill:#fff;}.cls-2{fill:#010101;}.cls-3{fill:#231f20;}.cls-4{fill:#de1e2f;}</style></defs><rect class="cls-1" width="1000" height="244.77"/><polygon class="cls-2" points="190.64 44.6 210.36 44.6 228.36 98.6 245.93 47.6 270.79 47.6 288.36 98.6 306.14 44.6 325.64 44.6 301.21 116.6 277.64 116.6 258.14 61.1 239.93 116.6 215.93 116.6 190.64 44.6"/><polygon class="cls-2" points="416.71 56.33 416.71 44.6 353.55 44.6 341.02 44.6 335.23 44.6 335.23 116.6 341.02 116.6 353.55 116.6 416.71 116.6 416.71 104.87 353.55 104.87 353.55 83.49 411.09 83.49 411.09 71.76 353.55 71.76 353.55 56.33 416.71 56.33"/><polygon class="cls-2" points="242.5 133.28 242.5 125.81 202.3 125.81 194.32 125.81 190.64 125.81 190.64 171.64 194.32 171.64 202.3 171.64 242.5 171.64 242.5 164.17 202.3 164.17 202.3 150.57 238.92 150.57 238.92 143.1 202.3 143.1 202.3 133.28 242.5 133.28"/><polygon class="cls-2" points="361.16 133.28 361.16 125.81 320.96 125.81 312.99 125.81 309.3 125.81 309.3 171.64 312.99 171.64 320.96 171.64 361.16 171.64 361.16 164.17 320.96 164.17 320.96 150.57 357.58 150.57 357.58 143.1 320.96 143.1 320.96 133.28 361.16 133.28"/><polygon class="cls-2" points="950.93 56.33 950.93 44.6 887.77 44.6 875.23 44.6 869.45 44.6 869.45 116.6 875.23 116.6 887.77 116.6 950.93 116.6 950.93 104.87 887.77 104.87 887.77 83.49 945.3 83.49 945.3 71.76 887.77 71.76 887.77 56.33 950.93 56.33"/><path class="cls-2" d="M504.38,71.44h-50.3a3.94,3.94,0,0,1-3.94-3.94V61.39a3.94,3.94,0,0,1,3.94-3.93h59.71V44.6H446.93c-.46,0-.93,0-1.4.07s-.71.1-1.06.16l-.26,0a14.78,14.78,0,0,0-2.47.68l-.36.13-.59.25c-5,2.09-9.13,6.46-9.13,11.53h.22a15.68,15.68,0,0,0-.22,2.49v7.79a15.91,15.91,0,0,0,15.91,15.91h48.49A3.94,3.94,0,0,1,500,87.59V99.8a3.93,3.93,0,0,1-3.94,3.94h-64.4V116.6h74.41A12.78,12.78,0,0,0,510,116a13.82,13.82,0,0,0,9.73-13.2v-16A15.35,15.35,0,0,0,504.38,71.44Z"/><path class="cls-2" d="M704.1,71.44H653.79a3.93,3.93,0,0,1-3.93-3.94V61.39a3.93,3.93,0,0,1,3.93-3.93H713.5V44.6H646.64c-.46,0-.93,0-1.4.07s-.71.1-1.06.16l-.26,0a14.78,14.78,0,0,0-2.47.68l-.36.13-.59.25c-5,2.09-9.13,6.46-9.13,11.53h.22a15.68,15.68,0,0,0-.22,2.49v7.79a15.91,15.91,0,0,0,15.92,15.91h48.49a3.94,3.94,0,0,1,3.93,3.94V99.8a3.93,3.93,0,0,1-3.93,3.94H631.37V116.6h74.42a12.72,12.72,0,0,0,3.92-.62,13.82,13.82,0,0,0,9.74-13.2v-16A15.35,15.35,0,0,0,704.1,71.44Z"/><polygon class="cls-2" points="619.43 44.6 526.64 44.6 526.64 56.6 563.5 56.6 563.5 116.6 582.57 116.6 582.57 56.6 619.43 56.6 619.43 44.6"/><polygon class="cls-2" points="485.71 125.81 426.73 125.81 426.73 133.44 450.16 133.44 450.16 171.58 462.29 171.58 462.29 133.44 485.71 133.44 485.71 125.81"/><rect class="cls-2" x="733.21" y="44.6" width="19.29" height="72"/><path class="cls-2" d="M767.5,44.6v72h53.57A33.43,33.43,0,0,0,854.5,83.17V78A33.43,33.43,0,0,0,821.07,44.6Zm18.43,60.21V56.39h27.21a22.28,22.28,0,0,1,22.29,22.28v3.86a22.28,22.28,0,0,1-22.29,22.28Z"/><rect class="cls-2" x="555.46" y="125.81" width="12.32" height="46"/><polygon class="cls-2" points="262.64 163.96 262.64 125.81 251.29 125.81 251.29 171.64 259 171.64 262.64 171.64 302.39 171.64 302.39 163.96 262.64 163.96"/><polygon class="cls-2" points="712.75 163.96 712.75 125.81 701.39 125.81 701.39 171.64 709.11 171.64 712.75 171.64 752.5 171.64 752.5 163.96 712.75 163.96"/><polygon class="cls-2" points="796.48 163.96 796.48 125.81 785.13 125.81 785.13 171.64 792.84 171.64 796.48 171.64 836.23 171.64 836.23 163.96 796.48 163.96"/><polygon class="cls-2" points="855.25 163.96 855.25 125.81 843.89 125.81 843.89 171.64 851.61 171.64 855.25 171.64 895 171.64 895 163.96 855.25 163.96"/><path class="cls-2" d="M420,133.64v-7.83H377.91a8.66,8.66,0,0,0-8.66,8.66V163a8.67,8.67,0,0,0,8.66,8.67H420v-7.83H384.71a3.35,3.35,0,0,1-3.35-3.35V137a3.35,3.35,0,0,1,3.35-3.35Z"/><path class="cls-2" d="M628.32,133.64v-7.83H586.2a8.66,8.66,0,0,0-8.66,8.66V163a8.66,8.66,0,0,0,8.66,8.67h42.12v-7.83H593a3.36,3.36,0,0,1-3.36-3.35V137a3.36,3.36,0,0,1,3.36-3.35Z"/><path class="cls-2" d="M950.93,133.64v-7.83H908.8a8.66,8.66,0,0,0-8.66,8.66V163a8.67,8.67,0,0,0,8.66,8.67h42.13v-7.83H915.61a3.35,3.35,0,0,1-3.36-3.35V137a3.35,3.35,0,0,1,3.36-3.35Z"/><path class="cls-2" d="M548.71,171.58l-18.32-18.23h6.43a9.54,9.54,0,0,0,9.54-9.54v-8.46a9.54,9.54,0,0,0-9.54-9.54H491.61v46h12.21V153.35H515.6l18.33,18.23Zm-44.89-37.73h27.64a3,3,0,0,1,3,3v5.46a3,3,0,0,1-3,3H503.82Z"/><path class="cls-2" d="M681.6,171.64h12.78l-23-46.2H656.6l-23,46.2h12.78l6.43-12.93h22.35Zm-25-20.49L664,136.26l7.41,14.89Z"/><path class="cls-3" d="M195.94,188.7h-3.66a5.94,5.94,0,0,1,6.17-5.44,5.8,5.8,0,0,1,4.13,1.56,4.9,4.9,0,0,1,1.67,3.72,4.26,4.26,0,0,1-.73,2.43,5.21,5.21,0,0,1-2.11,1.79,5.42,5.42,0,0,1,2.85,1.89,5.19,5.19,0,0,1,1,3.2,6.05,6.05,0,0,1-2,4.56,7.08,7.08,0,0,1-5.06,1.87,6.53,6.53,0,0,1-4.75-1.76,6.9,6.9,0,0,1-2-4.8h3.77a3.86,3.86,0,0,0,1.08,2.31,3.08,3.08,0,0,0,2.12.76,3,3,0,0,0,2.21-.86,2.8,2.8,0,0,0,.88-2.1,2.85,2.85,0,0,0-1.18-2.3,5.5,5.5,0,0,0-3.42-1V191.3a6.16,6.16,0,0,0,2-.43A2.54,2.54,0,0,0,200,190a2.06,2.06,0,0,0,.37-1.18,1.79,1.79,0,0,0-.57-1.36,2.13,2.13,0,0,0-1.5-.53,2.51,2.51,0,0,0-2.39,1.78Z"/><path class="cls-3" d="M231.62,183.26l3.24,1.62-3.5,6.8a5.85,5.85,0,0,1,4.33,1.82,6.24,6.24,0,0,1,1.78,4.54,6.28,6.28,0,0,1-10.76,4.36,6.09,6.09,0,0,1-1.8-4.32,6.43,6.43,0,0,1,.28-1.87,18.18,18.18,0,0,1,1.28-2.88Zm-.48,12a2.31,2.31,0,0,0-1.78.77,2.69,2.69,0,0,0-.72,1.92,2.73,2.73,0,0,0,.75,2,2.4,2.4,0,0,0,1.77.79,2.47,2.47,0,0,0,1.82-.78,2.88,2.88,0,0,0,0-3.88A2.44,2.44,0,0,0,231.14,195.29Z"/><path class="cls-3" d="M264.17,183.26a6.56,6.56,0,0,1,3.78,1.07,6.88,6.88,0,0,1,2.45,3.29,17.63,17.63,0,0,1,.86,6.16,17.28,17.28,0,0,1-.88,6.2,6.9,6.9,0,0,1-2.36,3.26,6.3,6.3,0,0,1-3.74,1,6.66,6.66,0,0,1-3.8-1,6.86,6.86,0,0,1-2.41-3.19,16.7,16.7,0,0,1-.87-6.08q0-5.52,1.7-8A6,6,0,0,1,264.17,183.26Zm.09,3.62a2.57,2.57,0,0,0-1.71.62,4,4,0,0,0-1.14,2.13,18.19,18.19,0,0,0-.4,4.42q0,3.8.91,5.25a2.68,2.68,0,0,0,2.34,1.44,2.46,2.46,0,0,0,2.2-1.37q1-1.67,1-5.55t-.89-5.45A2.63,2.63,0,0,0,264.26,186.88Z"/><path class="cls-3" d="M291.71,194.67h6.92v3.46h-6.92Z"/><path class="cls-3" d="M320,183.76h13.13v2l-9,18.52-3.21-1.56,7.52-15.38H320Z"/><path class="cls-3" d="M359.28,183.26l3.25,1.62-3.51,6.8a5.85,5.85,0,0,1,4.33,1.82,6.24,6.24,0,0,1,1.78,4.54,6.28,6.28,0,0,1-10.76,4.36,6.09,6.09,0,0,1-1.8-4.32,6.43,6.43,0,0,1,.28-1.87,18.48,18.48,0,0,1,1.29-2.88Zm-.48,12a2.33,2.33,0,0,0-1.78.77,2.9,2.9,0,0,0,0,3.87,2.38,2.38,0,0,0,1.76.79,2.45,2.45,0,0,0,1.82-.78,2.68,2.68,0,0,0,.76-2,2.62,2.62,0,0,0-.74-1.92A2.44,2.44,0,0,0,358.8,195.29Z"/><path class="cls-3" d="M389,190.21h-3.72a7.33,7.33,0,0,1,2-5.1,6.61,6.61,0,0,1,4.83-1.85,6.47,6.47,0,0,1,3.22.77,5.8,5.8,0,0,1,2.24,2.21,5.92,5.92,0,0,1,.83,2.95,8.8,8.8,0,0,1-1,3.84,21.27,21.27,0,0,1-3.71,4.86l-2.25,2.36h7.14v3.53H384.69V202l6.19-6.32a18.09,18.09,0,0,0,3-3.65,5.45,5.45,0,0,0,.74-2.5,2.57,2.57,0,0,0-.77-1.91,2.68,2.68,0,0,0-2-.76,2.64,2.64,0,0,0-2,.91A3.74,3.74,0,0,0,389,190.21Z"/><path class="cls-3" d="M419.38,194.67h6.91v3.46h-6.91Z"/><path class="cls-3" d="M457.88,192.92a6.12,6.12,0,0,1,2.84,5.21,6.27,6.27,0,0,1-.86,3.2,5.6,5.6,0,0,1-2.32,2.21,8.13,8.13,0,0,1-3.72.74,8.62,8.62,0,0,1-3.85-.71,5.49,5.49,0,0,1-2.29-2.17,6.31,6.31,0,0,1-.86-3.27,6,6,0,0,1,.69-2.88,7.14,7.14,0,0,1,2.06-2.33,6.39,6.39,0,0,1-1.35-1.93,5.38,5.38,0,0,1-.46-2.17,5.58,5.58,0,0,1,.76-2.85,5.18,5.18,0,0,1,2.12-2,6.58,6.58,0,0,1,3.14-.71,6.41,6.41,0,0,1,3.09.72,5.28,5.28,0,0,1,2.1,2,5.65,5.65,0,0,1,.77,2.85,4.85,4.85,0,0,1-.4,2A7.83,7.83,0,0,1,457.88,192.92Zm-4.07,2a3.36,3.36,0,0,0-2.32.84,2.6,2.6,0,0,0-.94,2,2.72,2.72,0,0,0,.89,2.05,3.23,3.23,0,0,0,2.33.84,3.3,3.3,0,0,0,2.32-.79,2.61,2.61,0,0,0,.86-2,2.72,2.72,0,0,0-.9-2.07A3.16,3.16,0,0,0,453.81,195Zm-.15-8a2.09,2.09,0,0,0-1.55.62,2.36,2.36,0,0,0,0,3.19,2.09,2.09,0,0,0,1.57.66,2.13,2.13,0,0,0,1.59-.64,2.3,2.3,0,0,0,.62-1.66,2.09,2.09,0,0,0-.63-1.57A2.25,2.25,0,0,0,453.66,186.93Z"/><path class="cls-3" d="M483.51,183.76h9.38v3.52h-6.53l-.82,3.64a5.72,5.72,0,0,1,.67-.14,3.38,3.38,0,0,1,.62-.05,6,6,0,0,1,4.53,1.86,6.53,6.53,0,0,1,1.8,4.75,6.74,6.74,0,0,1-2,4.94,6.61,6.61,0,0,1-4.85,2,6.69,6.69,0,0,1-6.81-5.44h4a3.43,3.43,0,0,0,1.22,1.42,3.07,3.07,0,0,0,1.67.48,2.88,2.88,0,0,0,2.15-.91,3.19,3.19,0,0,0,.88-2.34,3.24,3.24,0,0,0-.82-2.28,2.62,2.62,0,0,0-2-.89,2.81,2.81,0,0,0-1.24.31,4.71,4.71,0,0,0-1.19.94l-3.1-.69Z"/><path class="cls-3" d="M513.42,183.76h13.14v2l-9,18.52-3.22-1.56,7.52-15.38h-8.4Z"/><path class="cls-3" d="M549.3,183.76h9.37v3.52h-6.53l-.81,3.64a5.18,5.18,0,0,1,.66-.14,3.48,3.48,0,0,1,.63-.05,6,6,0,0,1,4.52,1.86,6.49,6.49,0,0,1,1.81,4.75,6.75,6.75,0,0,1-2,4.94,6.6,6.6,0,0,1-4.85,2,6.69,6.69,0,0,1-6.8-5.44h4a3.36,3.36,0,0,0,1.22,1.42,3,3,0,0,0,1.66.48,2.86,2.86,0,0,0,2.15-.91,3.2,3.2,0,0,0,.89-2.34,3.25,3.25,0,0,0-.83-2.28,2.62,2.62,0,0,0-2-.89,2.73,2.73,0,0,0-1.23.31,4.55,4.55,0,0,0-1.19.94l-3.1-.69Z"/><polygon class="cls-4" points="139.48 36.08 50.71 125.81 77.29 116.6 36.14 164.17 55.43 159.88 20.71 210.03 108.14 120.03 80.5 131.22 124.05 82.37 103.32 88.15 139.48 36.08"/></svg>