<svg xmlns="http://www.w3.org/2000/svg" viewBox="0 0 930.21 173.95"><defs><style>.cls-1{fill:#fff}</style></defs><g id="Layer_2" data-name="Layer 2"><g id="Layer_2-2" data-name="Layer 2"><path class="cls-1" d="M169.93 8.52h19.71l18 54 17.57-51h24.86l17.57 51 17.79-54h19.5l-24.43 72h-23.57l-19.5-55.5-18.22 55.5h-24l-25.28-72zM396 20.25V8.52H314.52v72H396V68.79h-63.16V47.41h57.54V35.68h-57.54V20.25H396zM221.79 97.2v-7.47H169.93v45.83h51.86v-7.47h-40.2v-13.61h36.62v-7.46h-36.62V97.2h40.2zM340.45 97.2v-7.47H288.59v45.83h51.86v-7.47h-40.2v-13.61h36.62v-7.46h-36.62V97.2h40.2zM930.21 20.25V8.52h-81.48v72H930.21V68.79h-63.16V47.41h57.54V35.68h-57.54V20.25h63.16zM483.67 35.36h-50.3a3.94 3.94 0 01-3.94-3.94v-6.11a3.94 3.94 0 013.94-3.94h59.7V8.52h-66.86a12.94 12.94 0 00-1.39.07c-.36 0-.71.1-1.06.16h-.27a14.44 14.44 0 00-2.46.69l-.36.13-.6.24c-5 2.1-9.12 6.47-9.12 11.53h.22a14.8 14.8 0 00-.22 2.5v7.79a15.91 15.91 0 0015.91 15.91h48.49a3.94 3.94 0 013.94 3.94v12.24a3.94 3.94 0 01-3.94 3.94H411v12.86h74.41a12.72 12.72 0 003.92-.62A13.82 13.82 0 00499 66.7v-16a15.35 15.35 0 00-15.33-15.34zM683.38 35.36h-50.3a4 4 0 01-3.94-3.94v-6.11a4 4 0 013.94-3.94h59.71V8.52h-66.86a13.26 13.26 0 00-1.4.07c-.36 0-.71.1-1.06.16h-.26a14.81 14.81 0 00-2.47.69l-.36.13-.59.24c-5 2.1-9.13 6.47-9.13 11.53h.22a15.91 15.91 0 00-.22 2.5v7.79a15.91 15.91 0 0015.91 15.91h48.49a3.93 3.93 0 013.94 3.97v12.21a3.93 3.93 0 01-3.94 3.94h-64.4v12.86h74.41a12.78 12.78 0 003.93-.62 13.82 13.82 0 009.73-13.2v-16a15.35 15.35 0 00-15.35-15.34zM598.71 8.52h-92.78v12h36.86v60h19.07v-60h36.85v-12zM465 89.73h-58.98v7.63h23.43v38.14h12.12V97.36H465v-7.63zM712.5 8.52h19.29v72H712.5zM746.79 8.52v72h53.57a33.43 33.43 0 0033.43-33.43V42a33.43 33.43 0 00-33.43-33.48zm18.42 60.21V20.3h27.22a22.28 22.28 0 0122.28 22.29v3.86a22.28 22.28 0 01-22.28 22.28zM534.75 89.73h12.32v46h-12.32zM241.93 127.88V89.73h-11.36v45.83h51.11v-7.68h-39.75zM692.04 127.88V89.73h-11.36v45.83h51.11v-7.68h-39.75zM775.77 127.88V89.73h-11.36v45.83h51.11v-7.68h-39.75zM834.54 127.88V89.73h-11.36v45.83h51.11v-7.68h-39.75zM399.32 97.55v-7.82H357.2a8.66 8.66 0 00-8.66 8.66v28.5a8.65 8.65 0 008.66 8.66h42.12v-7.82H364a3.36 3.36 0 01-3.36-3.35v-23.47a3.37 3.37 0 013.36-3.36zM607.61 97.55v-7.82h-42.13a8.66 8.66 0 00-8.66 8.66v28.5a8.66 8.66 0 008.66 8.66h42.13v-7.82h-35.32a3.35 3.35 0 01-3.36-3.35v-23.47a3.36 3.36 0 013.36-3.36zM930.21 97.55v-7.82h-42.12a8.66 8.66 0 00-8.66 8.66v28.5a8.66 8.66 0 008.66 8.66h42.12v-7.82h-35.32a3.35 3.35 0 01-3.35-3.35v-23.47a3.36 3.36 0 013.35-3.36zM528 135.5l-18.33-18.23h6.44a9.54 9.54 0 009.53-9.54v-8.46a9.54 9.54 0 00-9.53-9.54h-45.22v46h12.22v-18.46h11.78l18.32 18.23zm-44.89-37.73h27.64a3 3 0 013 3v5.46a3 3 0 01-3 3h-27.64zM660.88 135.55h12.78l-23-46.19h-14.78l-23 46.19h12.78l6.44-12.93h22.35zm-25-20.48l7.41-14.89 7.42 14.89zM175.22 152.62h-3.66a5.94 5.94 0 016.18-5.44 5.81 5.81 0 014.13 1.56 4.93 4.93 0 011.67 3.72 4.34 4.34 0 01-.73 2.43 5.14 5.14 0 01-2.12 1.78 5.41 5.41 0 012.85 1.9 5.12 5.12 0 011 3.19 6.05 6.05 0 01-2 4.57 7.11 7.11 0 01-5.07 1.87 6.61 6.61 0 01-4.75-1.76 7 7 0 01-2-4.8h3.77a3.75 3.75 0 001.08 2.31 3.33 3.33 0 004.33-.1 2.88 2.88 0 00-.31-4.4 5.49 5.49 0 00-3.41-1v-3.26a6.09 6.09 0 002-.43 2.54 2.54 0 001.05-.88 2.09 2.09 0 00.38-1.18 1.76 1.76 0 00-.58-1.36 2.08 2.08 0 00-1.49-.53 2.44 2.44 0 00-1.49.49 2.54 2.54 0 00-.83 1.32zM210.9 147.18l3.25 1.62-3.5 6.8a5.84 5.84 0 014.32 1.82 6.24 6.24 0 011.79 4.54 6.28 6.28 0 01-10.76 4.36 6.1 6.1 0 01-1.81-4.32 6.78 6.78 0 01.28-1.87 19.51 19.51 0 011.29-2.88zm-.47 12a2.34 2.34 0 00-1.78.76 2.7 2.7 0 00-.73 1.93 2.74 2.74 0 00.76 1.95 2.38 2.38 0 001.76.79 2.47 2.47 0 001.83-.78 2.9 2.9 0 000-3.89 2.5 2.5 0 00-1.84-.73zM243.46 147.18a6.5 6.5 0 013.77 1.07 6.76 6.76 0 012.45 3.29 17.33 17.33 0 01.87 6.16 17.54 17.54 0 01-.88 6.2 7 7 0 01-2.36 3.26 6.4 6.4 0 01-3.74 1 6.57 6.57 0 01-3.8-1 6.77 6.77 0 01-2.41-3.18 16.7 16.7 0 01-.87-6.08c0-3.68.56-6.34 1.7-8a6 6 0 015.27-2.72zm.08 3.62a2.62 2.62 0 00-1.71.61 4.11 4.11 0 00-1.14 2.13 19 19 0 00-.39 4.43q0 3.79.9 5.24a2.67 2.67 0 002.34 1.45 2.45 2.45 0 002.2-1.37q1-1.66 1-5.55c0-2.64-.3-4.45-.89-5.45a2.63 2.63 0 00-2.31-1.49zM271 158.59h6.91v3.46H271zM299.26 147.68h13.14v2l-9 18.52-3.22-1.56 7.52-15.38h-8.4zM338.57 147.18l3.24 1.62-3.5 6.8a5.86 5.86 0 014.33 1.82 6.28 6.28 0 011.78 4.54 6.28 6.28 0 01-10.76 4.36 6.09 6.09 0 01-1.8-4.32 6.43 6.43 0 01.28-1.87 18.18 18.18 0 011.28-2.88zm-.48 12a2.34 2.34 0 00-1.78.76 2.93 2.93 0 000 3.88 2.38 2.38 0 001.76.79 2.47 2.47 0 001.83-.78 2.68 2.68 0 00.76-2A2.7 2.7 0 00340 160a2.5 2.5 0 00-1.91-.79zM368.23 154.13h-3.71a7.33 7.33 0 012-5.1 7.24 7.24 0 018.06-1.09 6.16 6.16 0 013.07 5.17 8.69 8.69 0 01-1 3.84 20.48 20.48 0 01-3.65 4.85l-2.24 2.37h7.13v3.53H364v-1.83l6.2-6.31a18.24 18.24 0 003-3.65 5.36 5.36 0 00.74-2.5 2.56 2.56 0 00-.76-1.91 2.71 2.71 0 00-2-.76 2.64 2.64 0 00-2 .91 3.85 3.85 0 00-.95 2.48zM398.66 158.59h6.92v3.46h-6.92zM437.16 156.84a6.13 6.13 0 012.85 5.21 6.18 6.18 0 01-.87 3.2 5.54 5.54 0 01-2.32 2.21 8.22 8.22 0 01-3.71.74 8.84 8.84 0 01-3.86-.71 5.47 5.47 0 01-2.28-2.17 6.34 6.34 0 01-.86-3.27 6 6 0 01.69-2.88 6.93 6.93 0 012.06-2.33 6.61 6.61 0 01-1.36-1.93 5.37 5.37 0 01-.45-2.17 5.52 5.52 0 01.75-2.85 5.18 5.18 0 012.12-2 6.64 6.64 0 013.14-.71 6.41 6.41 0 013.09.72 5.37 5.37 0 012.11 2 5.65 5.65 0 01.77 2.85 4.85 4.85 0 01-.41 2 7.39 7.39 0 01-1.46 2.09zm-4.07 2a3.34 3.34 0 00-2.31.84 2.56 2.56 0 00-.94 2 2.71 2.71 0 00.88 2 3.25 3.25 0 002.33.84 3.33 3.33 0 002.32-.79 2.58 2.58 0 00.87-2 2.7 2.7 0 00-.9-2.07 3.17 3.17 0 00-2.25-.78zm-.15-8a2 2 0 00-1.54.62 2.14 2.14 0 00-.61 1.58 2.19 2.19 0 00.64 1.61 2.1 2.1 0 001.58.65 2.16 2.16 0 001.59-.63 2.3 2.3 0 00.61-1.66 2.09 2.09 0 00-.62-1.57 2.29 2.29 0 00-1.65-.59zM462.8 147.68h9.38v3.52h-6.54l-.81 3.64a5.65 5.65 0 01.66-.15 4.64 4.64 0 01.63 0 6.1 6.1 0 014.53 1.85 6.57 6.57 0 011.8 4.76 6.71 6.71 0 01-2 4.93 6.55 6.55 0 01-4.85 2 6.69 6.69 0 01-6.8-5.44h4a3.42 3.42 0 001.22 1.42 3 3 0 001.66.48 2.89 2.89 0 002.16-.91 3.57 3.57 0 00.06-4.62 2.64 2.64 0 00-2-.89 2.61 2.61 0 00-1.23.31 4.5 4.5 0 00-1.19.94l-3.1-.69zM492.71 147.68h13.13v2l-9 18.52-3.22-1.56 7.52-15.38h-8.4zM528.58 147.68H538v3.52h-6.53l-.82 3.64a5.8 5.8 0 01.67-.15 4.49 4.49 0 01.62 0 6.07 6.07 0 014.53 1.85 6.57 6.57 0 011.8 4.76 6.7 6.7 0 01-2 4.93 6.58 6.58 0 01-4.85 2 6.69 6.69 0 01-6.81-5.44h4a3.5 3.5 0 001.22 1.42 3 3 0 001.67.48 2.88 2.88 0 002.15-.91 3.57 3.57 0 00.06-4.62 2.62 2.62 0 00-2-.89 2.68 2.68 0 00-1.24.31 4.5 4.5 0 00-1.19.94l-3.1-.69z"/><path fill="#de1e2f" d="M118.77 0L30 89.73l26.57-9.21-41.14 47.57 19.28-4.29L0 173.95l87.43-90-27.64 11.19 43.55-48.85-20.73 5.78L118.77 0z"/></g></g></svg>