<svg xmlns="http://www.w3.org/2000/svg" viewBox="0 0 130.77 185.95"><g data-name="Layer 2"><path d="M6 183a3 3 0 01-2.47-4.71l30.36-43.85L22.08 137a2.94 2.94 0 01-.65.07 3 3 0 01-2.27-5L53 93l-16 5.57a3 3 0 01-3.11-4.95l88.75-89.73a3 3 0 012.13-.89 3 3 0 012.46 4.71L95.82 52.94l12.71-3.54a2.82 2.82 0 01.81-.11 3 3 0 012.24 5l-35 39.25 15.72-6.37A3 3 0 0195.58 92L8.15 182A3 3 0 016 183z" fill="#de1e2f"/><path d="M124.77 6L88.61 58.07l20.73-5.78-43.55 48.85L93.43 90 6 180l34.71-50.2-19.28 4.29 41.14-47.57L36 95.73 124.77 6m0-6h-.11a6 6 0 00-4.08 1.7l-.09.08-88.76 89.73A6 6 0 0036 101.73a5.86 5.86 0 002-.33l5.43-1.88-26.54 30.64a6 6 0 004.54 9.93 6.39 6.39 0 001.3-.14l4.33-1-26 37.55a6 6 0 009.23 7.6l87.43-90A6 6 0 0093.43 84a5.89 5.89 0 00-2.25.44l-3.78 1.48 26.42-29.64a6 6 0 00-4.48-10 5.9 5.9 0 00-1.61.22L103 47.82l26.61-38.28A6 6 0 00124.83 0zm0 12z" fill="#fff"/></g></svg>