<svg width="94" height="20" fill="none" xmlns="http://www.w3.org/2000/svg"><g clip-path="url(#clip0)"><path d="M18.823 7.649l-5.869-.853-2.625-5.318a.567.567 0 00-.514-.32v15.3l5.25 2.76c.42.22.912-.137.832-.605l-1.003-5.846 4.247-4.14a.573.573 0 00-.318-.978z" fill="#FFB820"/><path d="M13.662 12.367l.908 5.294-4.754-1.204-5.25 2.76a.573.573 0 01-.833-.604l1.003-5.846-4.247-4.14a.573.573 0 01.318-.978l5.869-.853L9.3 1.478a.567.567 0 01.514-.32l2.377 6.686 5.317.773-3.847 3.75z" fill="#FFD06A"/></g><g clip-path="url(#clip1)"><path d="M37.823 7.649l-5.869-.853-2.625-5.318a.567.567 0 00-.514-.32v15.3l5.25 2.76c.42.22.912-.137.832-.605l-1.003-5.846 4.247-4.14a.573.573 0 00-.318-.978z" fill="#FFB820"/><path d="M32.662 12.367l.908 5.294-4.754-1.204-5.25 2.76a.573.573 0 01-.833-.604l1.003-5.846-4.247-4.14a.573.573 0 01.318-.978l5.869-.853L28.3 1.478a.567.567 0 01.514-.32l2.377 6.686 5.317.773-3.847 3.75z" fill="#FFD06A"/></g><g clip-path="url(#clip2)"><path d="M56.823 7.649l-5.869-.853-2.625-5.318a.567.567 0 00-.514-.32v15.3l5.25 2.76c.42.22.912-.137.832-.605l-1.003-5.846 4.247-4.14a.573.573 0 00-.318-.978z" fill="#FFB820"/><path d="M51.662 12.367l.908 5.294-4.754-1.204-5.25 2.76a.573.573 0 01-.833-.604l1.003-5.846-4.247-4.14a.573.573 0 01.318-.978l5.869-.853L47.3 1.478a.567.567 0 01.514-.32l2.377 6.686 5.317.773-3.847 3.75z" fill="#FFD06A"/></g><g clip-path="url(#clip3)"><path d="M73.823 7.649l-5.869-.853-2.625-5.318a.567.567 0 00-.514-.32v15.3l5.25 2.76c.42.22.912-.137.832-.605l-1.003-5.846 4.247-4.14a.573.573 0 00-.318-.978z" fill="#FFB820"/><path d="M68.662 12.367l.908 5.294-4.754-1.204-5.25 2.76a.573.573 0 01-.833-.604l1.003-5.846-4.247-4.14a.573.573 0 01.318-.978l5.869-.853L64.3 1.478a.567.567 0 01.514-.32l2.377 6.686 5.317.773-3.847 3.75z" fill="#FFD06A"/></g><g clip-path="url(#clip4)"><path d="M92.823 7.649l-5.869-.853-2.625-5.318a.567.567 0 00-.514-.32v15.3l5.25 2.76c.42.22.912-.137.832-.605l-1.003-5.846 4.247-4.14a.573.573 0 00-.318-.978z" fill="#FFB820"/><path d="M87.662 12.367l.908 5.294-4.754-1.204-5.25 2.76a.573.573 0 01-.833-.604l1.003-5.846-4.247-4.14a.573.573 0 01.318-.978l5.869-.853L83.3 1.478a.567.567 0 01.514-.32l2.377 6.686 5.317.773-3.847 3.75z" fill="#FFD06A"/></g><defs><clipPath id="clip0"><path fill="#fff" transform="translate(.315 .721)" d="M0 0h19v19H0z"/></clipPath><clipPath id="clip1"><path fill="#fff" transform="translate(19.315 .721)" d="M0 0h19v19H0z"/></clipPath><clipPath id="clip2"><path fill="#fff" transform="translate(38.315 .721)" d="M0 0h19v19H0z"/></clipPath><clipPath id="clip3"><path fill="#fff" transform="translate(55.315 .721)" d="M0 0h19v19H0z"/></clipPath><clipPath id="clip4"><path fill="#fff" transform="translate(74.315 .721)" d="M0 0h19v19H0z"/></clipPath></defs></svg>