<svg xmlns="http://www.w3.org/2000/svg" viewBox="0 0 135 68.43"><defs><style>.cls-1{fill:#e30126}</style></defs><g id="Layer_2" data-name="Layer 2"><g id="Layer_1-2" data-name="Layer 1"><path class="cls-1" d="M67.5 68.43a34.22 34.22 0 1134.21-34.22A34.26 34.26 0 0167.5 68.43zM67.5 5a29.22 29.22 0 1029.21 29.21A29.25 29.25 0 0067.5 5z"/><path class="cls-1" d="M99.21 31.71H135v5H99.21zM0 31.71h35.78v5H0zM78.15 34.79c-.22-4.14-.48-9.11-.44-12.81h-.13c-1 3.48-2.24 7.18-3.74 11.27L68.6 47.64h-2.9l-4.8-14.13c-1.4-4.18-2.59-8-3.43-11.53h-.09c-.09 3.7-.31 8.67-.57 13.12L56 47.81h-3.63l2.06-29.66h4.89l5.06 14.35c1.23 3.65 2.24 6.91 3 10h.13c.75-3 1.81-6.25 3.13-10l5.28-14.35h4.88l1.85 29.66H78.9z"/></g></g></svg>