<svg xmlns="http://www.w3.org/2000/svg" viewBox="0 0 157.44 44.22"><g data-name="Layer 2"><path d="M68.84 44.22h-.15c-4 0-6-9.5-6-18.89a36 36 0 013.03-15.49A15.17 15.17 0 0056.65 5 9.8 9.8 0 0049 9.44a28.12 28.12 0 014.62 16.2c0 9-1.26 14.53-3.83 17A5 5 0 0146 44.21c-4 0-6-9.5-6-18.89a36.22 36.22 0 013-15.47C39.59 6.33 35.54 5 33.43 5 29.83 5 20.5 7.67 20.5 19.86s1.83 19.55 1.85 19.62l.81 3.12H0v-5h16.87a105.29 105.29 0 01-1.37-17.74C15.5 5.39 26.5 0 33.43 0c3.38 0 8.17 1.74 12.24 5.55A14.54 14.54 0 0156.59 0h.25a20.13 20.13 0 0111.58 5.55A14.51 14.51 0 0178.83 0h.35a19.44 19.44 0 0111.4 5.55A14.51 14.51 0 01101 0h.34a14.48 14.48 0 0110.43 5.53C115.83 1.74 120.63 0 124 0c6.93 0 17.92 5.39 17.92 19.86a105.58 105.58 0 01-1.36 17.75h16.86v5h-23.14l.82-3.13c0-.07 1.84-7.3 1.84-19.62S127.61 5 124 5c-2.12 0-6.18 1.34-9.56 4.86a36.1 36.1 0 013.06 15.46c0 9.39-2.08 18.89-6 18.89a5.13 5.13 0 01-3.81-1.53c-2.58-2.51-3.83-8.08-3.83-17a28.12 28.12 0 014.61-16.2A9.79 9.79 0 00101.16 5a9.79 9.79 0 00-7.29 4.4 28.42 28.42 0 014.62 16.2c0 9-1.25 14.53-3.83 17a5 5 0 01-3.81 1.53c-4 0-6-9.5-6-18.89a36 36 0 013-15.44A15.35 15.35 0 0079 5a9.79 9.79 0 00-7.26 4.4c2.7 3.93 4.59 9.25 4.59 16.24 0 9-1.25 14.53-3.83 17a5.12 5.12 0 01-3.66 1.58zm42.47-5h.16zM111 14.87a24.91 24.91 0 00-2.2 10.77c0 8.13 1.09 11.45 1.82 12.77.79-2 1.86-6.22 1.86-13.09A35.82 35.82 0 00111 14.87zm-19.76 0a35.73 35.73 0 00-1.47 10.43c0 6.86 1.06 11 1.85 13.08.74-1.32 1.83-4.64 1.83-12.76a25 25 0 00-2.17-10.73zm-44.88 0a35.78 35.78 0 00-1.47 10.46c0 6.86 1.06 11 1.85 13.08.74-1.32 1.83-4.64 1.83-12.76a25 25 0 00-2.17-10.79zm22.73 0a35.84 35.84 0 00-1.48 10.46c0 6.86 1.06 11 1.85 13.08.74-1.32 1.83-4.64 1.83-12.76a25.09 25.09 0 00-2.16-10.79z" fill="#231f20" data-name="Layer 1"/></g></svg>