<svg id="Layer_2" data-name="Layer 2" xmlns="http://www.w3.org/2000/svg" viewBox="0 0 1000 244.77"><defs><style>.cls-2{fill:#010101}.cls-3{fill:#231f20}</style></defs><path fill="#fff" d="M0 0h1000v244.77H0z"/><path class="cls-2" d="M190.64 44.6h19.72l18 54 17.57-51h24.86l17.57 51 17.78-54h19.5l-24.43 72h-23.57l-19.5-55.5-18.21 55.5h-24l-25.29-72zM416.71 56.33V44.6h-81.48v72H416.71v-11.73h-63.16V83.49h57.54V71.76h-57.54V56.33h63.16zM242.5 133.28v-7.47H190.64v45.83h51.86v-7.47h-40.2v-13.6h36.62v-7.47H202.3v-9.82h40.2zM361.16 133.28v-7.47H309.3v45.83h51.86v-7.47h-40.2v-13.6h36.62v-7.47h-36.62v-9.82h40.2zM950.93 56.33V44.6H869.45v72H950.93v-11.73h-63.16V83.49h57.53V71.76h-57.53V56.33h63.16zM504.38 71.44h-50.3a3.94 3.94 0 01-3.94-3.94v-6.11a3.94 3.94 0 013.94-3.93h59.71V44.6h-66.86c-.46 0-.93 0-1.4.07s-.71.1-1.06.16h-.26a14.78 14.78 0 00-2.47.68l-.36.13-.59.25c-5 2.09-9.13 6.46-9.13 11.53h.22a15.68 15.68 0 00-.22 2.49v7.79a15.91 15.91 0 0015.91 15.91h48.49a3.94 3.94 0 013.94 3.98V99.8a3.93 3.93 0 01-3.94 3.94h-64.4v12.86h74.41a12.78 12.78 0 003.93-.6 13.82 13.82 0 009.73-13.2v-16a15.35 15.35 0 00-15.35-15.36zM704.1 71.44h-50.31a3.93 3.93 0 01-3.93-3.94v-6.11a3.93 3.93 0 013.93-3.93h59.71V44.6h-66.86c-.46 0-.93 0-1.4.07s-.71.1-1.06.16h-.26a14.78 14.78 0 00-2.47.68l-.36.13-.59.25c-5 2.09-9.13 6.46-9.13 11.53h.22a15.68 15.68 0 00-.22 2.49v7.79a15.91 15.91 0 0015.92 15.91h48.49a3.94 3.94 0 013.93 3.94V99.8a3.93 3.93 0 01-3.93 3.94h-64.41v12.86h74.42a12.72 12.72 0 003.92-.62 13.82 13.82 0 009.74-13.2v-16a15.35 15.35 0 00-15.35-15.34zM619.43 44.6h-92.79v12h36.86v60h19.07v-60h36.86v-12zM485.71 125.81h-58.98v7.63h23.43v38.14h12.13v-38.14h23.42v-7.63zM733.21 44.6h19.29v72h-19.29zM767.5 44.6v72h53.57a33.43 33.43 0 0033.43-33.43V78a33.43 33.43 0 00-33.43-33.4zm18.43 60.21V56.39h27.21a22.28 22.28 0 0122.29 22.28v3.86a22.28 22.28 0 01-22.29 22.28zM555.46 125.81h12.32v46h-12.32zM262.64 163.96v-38.15h-11.35v45.83h51.1v-7.68h-39.75zM712.75 163.96v-38.15h-11.36v45.83h51.11v-7.68h-39.75zM796.48 163.96v-38.15h-11.35v45.83h51.1v-7.68h-39.75zM855.25 163.96v-38.15h-11.36v45.83H895v-7.68h-39.75zM420 133.64v-7.83h-42.09a8.66 8.66 0 00-8.66 8.66V163a8.67 8.67 0 008.66 8.67H420v-7.83h-35.29a3.35 3.35 0 01-3.35-3.35V137a3.35 3.35 0 013.35-3.35zM628.32 133.64v-7.83H586.2a8.66 8.66 0 00-8.66 8.66V163a8.66 8.66 0 008.66 8.67h42.12v-7.83H593a3.36 3.36 0 01-3.36-3.35V137a3.36 3.36 0 013.36-3.35zM950.93 133.64v-7.83H908.8a8.66 8.66 0 00-8.66 8.66V163a8.67 8.67 0 008.66 8.67h42.13v-7.83h-35.32a3.35 3.35 0 01-3.36-3.35V137a3.35 3.35 0 013.36-3.35zM548.71 171.58l-18.32-18.23h6.43a9.54 9.54 0 009.54-9.54v-8.46a9.54 9.54 0 00-9.54-9.54h-45.21v46h12.21v-18.46h11.78l18.33 18.23zm-44.89-37.73h27.64a3 3 0 013 3v5.46a3 3 0 01-3 3h-27.64zM681.6 171.64h12.78l-23-46.2H656.6l-23 46.2h12.78l6.43-12.93h22.35zm-25-20.49l7.4-14.89 7.41 14.89z"/><path class="cls-3" d="M195.94 188.7h-3.66a5.94 5.94 0 016.17-5.44 5.8 5.8 0 014.13 1.56 4.9 4.9 0 011.67 3.72 4.26 4.26 0 01-.73 2.43 5.21 5.21 0 01-2.11 1.79 5.42 5.42 0 012.85 1.89 5.19 5.19 0 011 3.2 6.05 6.05 0 01-2 4.56 7.08 7.08 0 01-5.06 1.87 6.53 6.53 0 01-4.75-1.76 6.9 6.9 0 01-2-4.8h3.77a3.86 3.86 0 001.08 2.31 3.08 3.08 0 002.12.76 3 3 0 002.21-.86 2.8 2.8 0 00.88-2.1 2.85 2.85 0 00-1.18-2.3 5.5 5.5 0 00-3.42-1v-3.23a6.16 6.16 0 002-.43A2.54 2.54 0 00200 190a2.06 2.06 0 00.37-1.18 1.79 1.79 0 00-.57-1.36 2.13 2.13 0 00-1.5-.53 2.51 2.51 0 00-2.39 1.78zM231.62 183.26l3.24 1.62-3.5 6.8a5.85 5.85 0 014.33 1.82 6.24 6.24 0 011.78 4.54 6.28 6.28 0 01-10.76 4.36 6.09 6.09 0 01-1.8-4.32 6.43 6.43 0 01.28-1.87 18.18 18.18 0 011.28-2.88zm-.48 12a2.31 2.31 0 00-1.78.77 2.69 2.69 0 00-.72 1.92 2.73 2.73 0 00.75 2 2.4 2.4 0 001.77.79 2.47 2.47 0 001.82-.78 2.88 2.88 0 000-3.88 2.44 2.44 0 00-1.84-.79zM264.17 183.26a6.56 6.56 0 013.78 1.07 6.88 6.88 0 012.45 3.29 17.63 17.63 0 01.86 6.16 17.28 17.28 0 01-.88 6.2 6.9 6.9 0 01-2.36 3.26 6.3 6.3 0 01-3.74 1 6.66 6.66 0 01-3.8-1 6.86 6.86 0 01-2.41-3.19 16.7 16.7 0 01-.87-6.08q0-5.52 1.7-8a6 6 0 015.27-2.71zm.09 3.62a2.57 2.57 0 00-1.71.62 4 4 0 00-1.14 2.13 18.19 18.19 0 00-.4 4.42q0 3.8.91 5.25a2.68 2.68 0 002.34 1.44 2.46 2.46 0 002.2-1.37q1-1.67 1-5.55t-.89-5.45a2.63 2.63 0 00-2.31-1.49zM291.71 194.67h6.92v3.46h-6.92zM320 183.76h13.13v2l-9 18.52-3.21-1.56 7.52-15.38H320zM359.28 183.26l3.25 1.62-3.51 6.8a5.85 5.85 0 014.33 1.82 6.24 6.24 0 011.78 4.54 6.28 6.28 0 01-10.76 4.36 6.09 6.09 0 01-1.8-4.32 6.43 6.43 0 01.28-1.87 18.48 18.48 0 011.29-2.88zm-.48 12a2.33 2.33 0 00-1.78.77 2.9 2.9 0 000 3.87 2.38 2.38 0 001.76.79 2.45 2.45 0 001.82-.78 2.68 2.68 0 00.76-2 2.62 2.62 0 00-.74-1.92 2.44 2.44 0 00-1.82-.7zM389 190.21h-3.72a7.33 7.33 0 012-5.1 6.61 6.61 0 014.83-1.85 6.47 6.47 0 013.22.77 5.8 5.8 0 012.24 2.21 5.92 5.92 0 01.83 2.95 8.8 8.8 0 01-1 3.84 21.27 21.27 0 01-3.71 4.86l-2.25 2.36h7.14v3.53h-13.89V202l6.19-6.32a18.09 18.09 0 003-3.65 5.45 5.45 0 00.74-2.5 2.57 2.57 0 00-.77-1.91 2.68 2.68 0 00-2-.76 2.64 2.64 0 00-2 .91 3.74 3.74 0 00-.85 2.44zM419.38 194.67h6.91v3.46h-6.91zM457.88 192.92a6.12 6.12 0 012.84 5.21 6.27 6.27 0 01-.86 3.2 5.6 5.6 0 01-2.32 2.21 8.13 8.13 0 01-3.72.74 8.62 8.62 0 01-3.85-.71 5.49 5.49 0 01-2.29-2.17 6.31 6.31 0 01-.86-3.27 6 6 0 01.69-2.88 7.14 7.14 0 012.06-2.33 6.39 6.39 0 01-1.35-1.93 5.38 5.38 0 01-.46-2.17 5.58 5.58 0 01.76-2.85 5.18 5.18 0 012.12-2 6.58 6.58 0 013.14-.71 6.41 6.41 0 013.09.72 5.28 5.28 0 012.1 2 5.65 5.65 0 01.77 2.85 4.85 4.85 0 01-.4 2 7.83 7.83 0 01-1.46 2.09zm-4.07 2a3.36 3.36 0 00-2.32.84 2.6 2.6 0 00-.94 2 2.72 2.72 0 00.89 2.05 3.23 3.23 0 002.33.84 3.3 3.3 0 002.32-.79 2.61 2.61 0 00.86-2 2.72 2.72 0 00-.9-2.07 3.16 3.16 0 00-2.24-.79zm-.15-8a2.09 2.09 0 00-1.55.62 2.36 2.36 0 000 3.19 2.09 2.09 0 001.57.66 2.13 2.13 0 001.59-.64 2.3 2.3 0 00.62-1.66 2.09 2.09 0 00-.63-1.57 2.25 2.25 0 00-1.6-.59zM483.51 183.76h9.38v3.52h-6.53l-.82 3.64a5.72 5.72 0 01.67-.14 3.38 3.38 0 01.62-.05 6 6 0 014.53 1.86 6.53 6.53 0 011.8 4.75 6.74 6.74 0 01-2 4.94 6.61 6.61 0 01-4.85 2 6.69 6.69 0 01-6.81-5.44h4a3.43 3.43 0 001.22 1.42 3.07 3.07 0 001.67.48 2.88 2.88 0 002.15-.91 3.19 3.19 0 00.88-2.34 3.24 3.24 0 00-.82-2.28 2.62 2.62 0 00-2-.89 2.81 2.81 0 00-1.24.31 4.71 4.71 0 00-1.19.94l-3.1-.69zM513.42 183.76h13.14v2l-9 18.52-3.22-1.56 7.52-15.38h-8.4zM549.3 183.76h9.37v3.52h-6.53l-.81 3.64a5.18 5.18 0 01.66-.14 3.48 3.48 0 01.63-.05 6 6 0 014.52 1.86 6.49 6.49 0 011.81 4.75 6.75 6.75 0 01-2 4.94 6.6 6.6 0 01-4.85 2 6.69 6.69 0 01-6.8-5.44h4a3.36 3.36 0 001.22 1.42 3 3 0 001.66.48 2.86 2.86 0 002.15-.91 3.2 3.2 0 00.89-2.34 3.25 3.25 0 00-.83-2.28 2.62 2.62 0 00-2-.89 2.73 2.73 0 00-1.23.31 4.55 4.55 0 00-1.19.94l-3.1-.69z"/><path fill="#de1e2f" d="M139.48 36.08l-88.77 89.73 26.58-9.21-41.15 47.57 19.29-4.29-34.72 50.15 87.43-90-27.64 11.19 43.55-48.85-20.73 5.78 36.16-52.07z"/></svg>